<svg width="295" height="232" viewBox="0 0 295 232" fill="none" xmlns="http://www.w3.org/2000/svg">
<path d="M266.879 161.9C257.856 181.883 209.19 206.436 146.446 220.989C72.6246 238.114 7.27256 234.912 0.477991 213.836C-6.31658 192.764 60.3675 220.599 134.192 203.474C174.503 194.121 208.603 173.299 232.366 159.755C252.119 148.49 264.728 142.254 267.812 151.822C268.832 154.984 268.473 158.371 266.879 161.9Z" fill="#3F3D56"/>
<path opacity="0.1" d="M85.4261 217.936C103.957 217.936 118.98 216.662 118.98 215.09C118.98 213.518 103.957 212.244 85.4261 212.244C66.8951 212.244 51.8727 213.518 51.8727 215.09C51.8727 216.662 66.8951 217.936 85.4261 217.936Z" fill="black"/>
<path opacity="0.1" d="M22.849 215.375C31.2806 215.375 38.1158 214.101 38.1158 212.529C38.1158 210.957 31.2806 209.683 22.849 209.683C14.4173 209.683 7.58215 210.957 7.58215 212.529C7.58215 214.101 14.4173 215.375 22.849 215.375Z" fill="black"/>
<path d="M161.461 130.158C160.119 130.158 158.769 130.121 157.44 130.049L157.482 129.481C158.799 129.552 160.136 129.588 161.457 129.588L161.497 129.588V130.157L161.466 130.158L161.461 130.158ZM165.557 130.044L165.513 129.476C166.844 129.403 168.189 129.291 169.51 129.144L169.597 129.709C168.262 129.857 166.902 129.97 165.557 130.044ZM153.398 129.718C152.06 129.571 150.711 129.384 149.39 129.163L149.52 128.605C150.827 128.823 152.16 129.008 153.484 129.153L153.398 129.718ZM173.604 129.149L173.474 128.591C174.781 128.371 176.097 128.111 177.386 127.819L177.559 128.369C176.257 128.664 174.926 128.927 173.604 129.149ZM145.434 128.387C144.134 128.093 142.826 127.758 141.547 127.391L141.762 126.851C143.027 127.214 144.321 127.546 145.607 127.836L145.434 128.387ZM181.445 127.368L181.229 126.829C182.488 126.466 183.75 126.063 184.981 125.629L185.239 126.155C183.994 126.593 182.718 127.002 181.445 127.368ZM137.739 126.177C136.494 125.74 135.248 125.262 134.035 124.754L134.332 124.244C135.531 124.745 136.764 125.219 137.996 125.651L137.739 126.177ZM188.932 124.732L188.634 124.222C189.83 123.721 191.02 123.18 192.172 122.614L192.508 123.107C191.343 123.679 190.14 124.226 188.932 124.732V124.732ZM130.451 123.128C129.283 122.556 128.122 121.943 127 121.307L127.373 120.834C128.483 121.463 129.631 122.069 130.786 122.635L130.451 123.128ZM195.952 121.286L195.578 120.813C196.684 120.185 197.782 119.517 198.84 118.827L199.249 119.278C198.179 119.976 197.07 120.651 195.952 121.286V121.286ZM123.698 119.299C122.629 118.603 121.572 117.868 120.558 117.113L121 116.685C122.004 117.431 123.049 118.159 124.107 118.848L123.698 119.299ZM202.386 117.092L201.943 116.664C202.945 115.918 203.932 115.134 204.875 114.334L205.35 114.737C204.396 115.545 203.399 116.338 202.386 117.092V117.092ZM117.592 114.759C116.638 113.951 115.703 113.106 114.814 112.247L115.318 111.871C116.198 112.721 117.122 113.557 118.066 114.356L117.592 114.759ZM208.127 112.223L207.622 111.847C208.502 110.997 209.361 110.111 210.174 109.213L210.706 109.56C209.884 110.467 209.017 111.363 208.127 112.223V112.223ZM112.234 109.588C111.412 108.682 110.615 107.741 109.865 106.792L110.422 106.475C111.164 107.414 111.953 108.344 112.766 109.24L112.234 109.588ZM213.075 106.76L212.518 106.444C213.26 105.503 213.975 104.529 214.644 103.55L215.224 103.835C214.549 104.825 213.826 105.809 213.075 106.76V106.76ZM107.716 103.872C107.039 102.883 106.394 101.862 105.797 100.84L106.398 100.587C106.989 101.599 107.627 102.608 108.296 103.587L107.716 103.872ZM217.143 100.795L216.542 100.543C217.133 99.5288 217.692 98.4836 218.203 97.4366L218.823 97.6545C218.306 98.713 217.741 99.7697 217.143 100.795V100.795ZM104.117 97.7081C103.6 96.6534 103.118 95.5709 102.684 94.4908L103.32 94.3074C103.749 95.3755 104.226 96.4463 104.737 97.4897L104.117 97.7081ZM220.257 94.4258L219.621 94.2432C220.049 93.1714 220.441 92.0743 220.785 90.982L221.433 91.129C221.085 92.2331 220.689 93.3424 220.257 94.4258V94.4258ZM101.502 91.1954C101.153 90.0912 100.842 88.9626 100.579 87.8412L101.237 87.7301C101.497 88.8393 101.805 89.9555 102.151 91.0478L101.502 91.1954ZM222.351 87.7736L221.692 87.6632C221.951 86.5539 222.17 85.4227 222.342 84.301L223.007 84.3746C222.833 85.5086 222.612 86.6522 222.351 87.7736ZM99.9176 84.4431C99.7421 83.3123 99.6081 82.1593 99.519 81.0158L100.189 80.9783C100.277 82.1095 100.409 83.2502 100.583 84.3689L99.9176 84.4431ZM223.401 80.9466L222.731 80.91C222.817 79.7853 222.86 78.6396 222.86 77.5046L222.86 77.3695H223.531L223.531 77.5028C223.531 78.6517 223.487 79.8097 223.401 80.9466V80.9466ZM100.054 77.5726H99.3833L99.3835 77.5028C99.3835 76.3813 99.4256 75.2462 99.5088 74.1308L100.179 74.1667C100.096 75.2703 100.055 76.3933 100.055 77.5046L100.054 77.5726ZM222.721 73.9643C222.632 72.8352 222.497 71.6945 222.322 70.5742L222.987 70.4991C223.164 71.6319 223.3 72.7849 223.39 73.9263L222.721 73.9643ZM100.562 70.7751L99.8967 70.7023C100.069 69.5683 100.288 68.4244 100.548 67.3025L101.206 67.4123C100.95 68.5219 100.733 69.6534 100.562 70.7751ZM221.662 67.2135C221.4 66.1049 221.091 64.9891 220.743 63.8968L221.391 63.7484C221.743 64.8528 222.055 65.9809 222.32 67.1017L221.662 67.2135ZM102.11 64.0925L101.461 63.9463C101.807 62.8403 102.202 61.7307 102.633 60.6481L103.269 60.8301C102.842 61.9009 102.452 62.9985 102.11 64.0925ZM219.569 60.6385C219.138 59.5695 218.66 58.4995 218.147 57.4579L218.766 57.2386C219.285 58.2917 219.768 59.3736 220.204 60.4542L219.569 60.6385ZM104.681 57.6352L104.06 57.4179C104.576 56.3603 105.139 55.303 105.736 54.2753L106.338 54.5269C105.748 55.5433 105.19 56.589 104.681 57.6352ZM216.481 54.3622C215.89 53.3531 215.25 52.3447 214.579 51.3647L215.159 51.0787C215.838 52.0693 216.485 53.0889 217.082 54.109L216.481 54.3622ZM108.232 51.5177L107.65 51.2334C108.324 50.243 109.045 49.2578 109.795 48.3054L110.353 48.6215C109.612 49.5637 108.898 50.5381 108.232 51.5177V51.5177ZM212.449 48.4785C211.704 47.5393 210.914 46.6097 210.1 45.7155L210.632 45.3678C211.454 46.2718 212.253 47.2115 213.006 48.1608L212.449 48.4785ZM112.693 45.8493L112.16 45.503C112.981 44.5951 113.847 43.6983 114.735 42.8378L115.24 43.2127C114.362 44.0641 113.505 44.9511 112.693 45.8493V45.8493ZM207.545 43.0874C206.664 42.2398 205.739 41.4047 204.792 40.6052L205.266 40.2019C206.222 41.0101 207.158 41.8543 208.048 42.711L207.545 43.0874ZM117.984 40.7227L117.509 40.3208C118.461 39.5111 119.457 38.7176 120.468 37.9624L120.912 38.3896C119.911 39.1369 118.926 39.9218 117.984 40.7227V40.7227ZM201.855 38.2798C200.85 37.5343 199.803 36.8079 198.745 36.1208L199.153 35.6689C200.223 36.3633 201.281 37.0976 202.297 37.8513L201.855 38.2798ZM124.011 36.2235L123.602 35.7727C124.669 35.0751 125.778 34.3983 126.896 33.7611L127.27 34.2336C126.164 34.864 125.067 35.5335 124.011 36.2235V36.2235ZM195.476 34.1378C194.365 33.51 193.216 32.9052 192.06 32.3401L192.394 31.8468C193.564 32.4181 194.725 33.0296 195.848 33.6642L195.476 34.1378ZM130.674 32.4285L130.338 31.9363C131.502 31.363 132.704 30.8148 133.911 30.3068L134.209 30.8169C133.015 31.3192 131.826 31.8615 130.674 32.4285ZM188.511 30.7356C187.312 30.2357 186.079 29.7636 184.846 29.3321L185.101 28.806C186.349 29.2421 187.595 29.7194 188.807 30.2247L188.511 30.7356ZM137.86 29.4056L137.602 28.8802C138.845 28.4409 140.121 28.0312 141.394 27.6627L141.611 28.2013C140.352 28.566 139.09 28.9712 137.86 29.4056ZM181.078 28.1363C179.814 27.7751 178.52 27.445 177.231 27.1553L177.403 26.6049C178.706 26.8979 180.014 27.2316 181.292 27.5968L181.078 28.1363ZM145.453 27.2077L145.278 26.6579C146.579 26.3608 147.91 26.0966 149.232 25.8724L149.363 26.4305C148.055 26.6523 146.74 26.9137 145.453 27.2077V27.2077ZM173.317 26.3915C172.01 26.1746 170.676 25.9915 169.352 25.8473L169.437 25.2828C170.775 25.4284 172.124 25.6135 173.446 25.8328L173.317 26.3915ZM153.326 25.8734L153.238 25.3092C154.571 25.1597 155.93 25.0451 157.278 24.969L157.323 25.537C155.989 25.6123 154.644 25.7256 153.326 25.8734V25.8734ZM165.353 25.5239C164.065 25.4555 162.754 25.4208 161.457 25.4208L161.338 25.4209V24.8517L161.456 24.8516C162.768 24.8516 164.093 24.8866 165.395 24.9558L165.353 25.5239Z" fill="#E6E6E6"/>
<path d="M161.482 114.22L161.482 113.65C162.793 113.65 164.115 113.598 165.413 113.497L165.475 114.063C164.157 114.166 162.813 114.219 161.482 114.22ZM157.491 114.068C156.167 113.966 154.834 113.81 153.531 113.606L153.653 113.046C154.936 113.247 156.247 113.4 157.552 113.501L157.491 114.068ZM169.433 113.598L169.311 113.038C170.596 112.835 171.885 112.578 173.141 112.275L173.325 112.823C172.048 113.131 170.739 113.391 169.433 113.598ZM149.639 112.834C148.362 112.528 147.087 112.166 145.848 111.76L146.09 111.229C147.309 111.629 148.565 111.985 149.822 112.287L149.639 112.834ZM177.114 111.744L176.871 111.213C178.088 110.813 179.298 110.358 180.469 109.863L180.769 110.372C179.58 110.876 178.35 111.337 177.114 111.744V111.744ZM142.19 110.39C141.002 109.889 139.827 109.333 138.698 108.74L139.051 108.256C140.162 108.84 141.319 109.387 142.489 109.881L142.19 110.39ZM184.258 108.719L183.904 108.235C185.013 107.651 186.104 107.015 187.148 106.345L187.553 106.799C186.493 107.48 185.385 108.125 184.258 108.719V108.719ZM135.4 106.823C134.341 106.146 133.306 105.417 132.323 104.658L132.775 104.237C133.743 104.985 134.762 105.702 135.804 106.369L135.4 106.823ZM190.626 104.631L190.174 104.21C191.139 103.464 192.075 102.669 192.956 101.849L193.452 102.233C192.557 103.065 191.606 103.872 190.626 104.631V104.631ZM129.495 102.262C128.598 101.43 127.738 100.554 126.937 99.6571L127.472 99.3132C128.26 100.196 129.107 101.059 129.99 101.879L129.495 102.262ZM196.007 99.625L195.472 99.2817C196.261 98.3963 197.01 97.4701 197.698 96.5286L198.268 96.8284C197.569 97.7848 196.808 98.7257 196.007 99.625V99.625ZM124.672 96.8632C123.971 95.9069 123.314 94.9115 122.72 93.9044L123.321 93.6498C123.905 94.6412 124.552 95.6212 125.242 96.5627L124.672 96.8632ZM200.216 93.8669L199.615 93.6128C200.198 92.6217 200.734 91.5943 201.206 90.5594L201.832 90.765C201.352 91.8163 200.808 92.86 200.216 93.8669V93.8669ZM121.101 90.8051C120.62 89.756 120.192 88.6746 119.827 87.5912L120.473 87.435C120.831 88.5016 121.253 89.5661 121.727 90.5988L121.101 90.8051ZM203.101 87.5498L202.456 87.3944C202.812 86.3276 203.114 85.2343 203.353 84.1449L204.013 84.2488C203.77 85.3555 203.464 86.4661 203.101 87.5498ZM118.911 84.2911C118.668 83.1866 118.482 82.0569 118.36 80.9336L119.028 80.881C119.149 81.987 119.331 83.0991 119.571 84.1866L118.911 84.2911ZM204.56 80.8906L203.891 80.8388C204.01 79.7382 204.07 78.6164 204.07 77.5048L204.07 77.42H204.741L204.741 77.502C204.741 78.6338 204.68 79.7729 204.56 80.8906ZM118.844 77.547H118.173V77.5048C118.173 76.3906 118.233 75.2657 118.35 74.1613L119.019 74.2124C118.903 75.2999 118.844 76.4076 118.844 77.5048V77.547ZM203.882 74.0865C203.759 72.9798 203.575 71.8679 203.334 70.7815L203.994 70.6765C204.238 71.7798 204.425 72.9092 204.55 74.0332L203.882 74.0865ZM119.553 70.9059L118.893 70.8026C119.134 69.6956 119.439 68.5848 119.8 67.5007L120.445 67.6555C120.09 68.7225 119.79 69.8161 119.553 70.9059ZM202.429 67.5339C202.069 66.468 201.645 65.4041 201.17 64.3715L201.796 64.1647C202.278 65.2135 202.708 66.2943 203.074 67.3772L202.429 67.5339ZM121.691 64.4894L121.064 64.2842C121.542 63.2343 122.085 62.1901 122.676 61.1808L123.277 61.4342C122.695 62.4277 122.161 63.4557 121.691 64.4894ZM199.571 61.3222C198.987 60.3329 198.339 59.3534 197.647 58.4113L198.216 58.1102C198.92 59.0673 199.577 60.0622 200.171 61.0671L199.571 61.3222ZM125.191 58.5168L124.62 58.2175C125.318 57.26 126.078 56.3185 126.878 55.4188L127.413 55.7615C126.626 56.6473 125.878 57.5743 125.191 58.5168ZM195.413 55.6628C194.623 54.7802 193.774 53.918 192.891 53.0999L193.386 52.7155C194.283 53.5463 195.145 54.4221 195.947 55.3184L195.413 55.6628ZM129.925 53.1912L129.429 52.8082C130.322 51.9751 131.272 51.1674 132.251 50.4074L132.704 50.8273C131.74 51.5757 130.805 52.371 129.925 53.1912ZM190.102 50.7439C189.134 49.9979 188.114 49.2816 187.071 48.6149L187.475 48.1602C188.534 48.8374 189.571 49.5649 190.554 50.3226L190.102 50.7439ZM135.727 48.6897L135.322 48.2361C136.38 47.5554 137.487 46.9085 138.614 46.3134L138.969 46.7968C137.859 47.3825 136.769 48.0194 135.727 48.6897V48.6897ZM183.821 46.7313C182.71 46.1486 181.552 45.6032 180.381 45.1098L180.679 44.6001C181.869 45.1011 183.045 45.6553 184.174 46.2471L183.821 46.7313ZM142.402 45.1655L142.101 44.6566C143.288 44.1524 144.517 43.6895 145.754 43.281L145.997 43.8113C144.78 44.2136 143.57 44.6691 142.402 45.1655V45.1655ZM176.778 43.7657C175.558 43.3668 174.302 43.0122 173.045 42.7115L173.227 42.1636C174.504 42.4691 175.78 42.8294 177.019 43.2345L176.778 43.7657ZM149.726 42.7461L149.542 42.1988C150.819 41.8893 152.127 41.6273 153.432 41.4199L153.556 41.9794C152.272 42.1835 150.983 42.4414 149.726 42.7461V42.7461ZM169.213 41.9562C167.929 41.756 166.618 41.6043 165.314 41.5052L165.374 40.9382C166.698 41.0389 168.03 41.1931 169.334 41.3964L169.213 41.9562ZM157.452 41.5167L157.39 40.95C158.708 40.8458 160.051 40.792 161.382 40.79L161.383 41.3593C160.072 41.3612 158.75 41.4142 157.452 41.5167V41.5167Z" fill="#E6E6E6"/>
<path d="M167.333 152.209C165.4 151.674 162.99 150.731 161.474 149.697L162.62 152.083C123.585 152.541 88.5217 130.77 77.2556 98.9616C66.0284 67.2635 81.0229 32.7687 113.728 14.8621L114.331 17.3868C114.918 15.8142 116.31 13.8967 117.569 12.5435C115.574 12.8728 112.927 13.0424 111.011 12.7636L113.378 14.3758C97.5392 23.101 85.3735 35.865 78.6329 50.8297C71.7011 66.3199 70.9982 83.3189 76.6335 99.183C82.2688 115.047 93.9264 128.887 109.793 138.55C124.869 147.691 142.925 152.623 161.456 152.663C161.852 152.663 162.249 152.657 162.647 152.652L161.728 155.107C163.142 153.974 165.457 152.872 167.333 152.209Z" fill="#3F3D56"/>
<path d="M246.283 55.8865C240.973 40.8926 230.275 27.6796 215.683 18.0922C201.092 8.50483 183.335 3.02167 164.892 2.40829L165.962 0C164.48 1.06733 162.099 2.06393 160.184 2.6416C162.081 3.26285 164.429 4.31284 165.877 5.41326L164.882 2.9778C183.116 3.58725 200.675 8.99319 215.125 18.4463C229.575 27.8994 240.2 40.9315 245.528 55.736C250.856 70.5405 250.622 86.3842 244.859 101.071C239.096 115.758 228.089 128.56 213.364 137.703L212.586 135.211C212.109 136.81 210.853 138.793 209.689 140.207C211.658 139.779 214.289 139.478 216.221 139.661L213.748 138.17C228.534 128.991 239.602 116.149 245.428 101.413C251.255 86.6775 251.554 70.7722 246.283 55.8865V55.8865Z" fill="#3F3D56"/>
<path opacity="0.1" d="M266.879 161.9C264.567 161.989 262.192 162.034 259.769 162.034C249.294 162.034 239.717 161.175 232.366 159.755C252.119 148.49 264.728 142.254 267.812 151.822C268.832 154.984 268.473 158.371 266.879 161.9Z" fill="black"/>
<path d="M73.927 12.8979C64.6268 12.8979 57.8561 18.2544 55.5737 25.9019L52.7441 37.3745H54.7573L59.1193 27.9823L58.201 37.3745H60.4614L62.1391 32.5361L61.7859 37.3745H88.9819V25.668C88.9819 23.991 88.5925 22.3304 87.8359 20.7811C87.0793 19.2317 85.9704 17.824 84.5724 16.6382C83.1744 15.4524 81.5148 14.5118 79.6882 13.87C77.8617 13.2282 75.904 12.8979 73.927 12.8979V12.8979Z" fill="#2F2E41"/>
<path d="M56.4352 98.5831L62.8103 124.717L97.7059 125.153L88.982 97.7119L56.4352 98.5831Z" fill="#3F3D56"/>
<path opacity="0.1" d="M56.4352 98.5831L62.8103 124.717L97.7059 125.153L88.982 97.7119L56.4352 98.5831Z" fill="black"/>
<path d="M61.6359 78.2163C61.6359 78.2163 47.879 94.4391 48.55 100.985C49.2211 107.531 57.945 214.26 57.945 214.26L78.4126 215.114L72.373 138.269L77.406 117.493L89.8208 214.26L114.986 214.83L92.505 89.3161L88.1431 78.2163H61.6359Z" fill="#2F2E41"/>
<path d="M66.3333 28.6938C66.3333 28.6938 70.6952 35.5245 64.9911 40.0783C59.2871 44.6321 56.6028 56.8704 56.6028 56.8704L88.8141 54.8781L86.1298 39.5091C86.1298 39.5091 79.0836 35.8091 80.7613 29.2631L66.3333 28.6938Z" fill="#A0616A"/>
<path opacity="0.1" d="M66.3333 28.6938C66.3333 28.6938 70.6952 35.5245 64.9911 40.0783C59.2871 44.6321 56.6028 56.8704 56.6028 56.8704L88.8141 54.8781L86.1298 39.5091C86.1298 39.5091 79.0836 35.8091 80.7613 29.2631L66.3333 28.6938Z" fill="black"/>
<path d="M60.9648 46.9092C60.9648 46.9092 62.978 52.0322 71.7019 51.463C77.0132 51.0868 82.1099 49.5148 86.4654 46.9092V80.2087L59.6227 79.3548V59.1475L60.9648 46.9092Z" fill="#7011CE"/>
<path d="M67.2201 37.3628L64.6556 38.9401L49.221 45.2015L54.5896 68.8243L58.2805 73.9473V80.2087L49.221 91.0239C47.1846 98.6884 46.0605 106.507 45.8657 114.362C45.5301 127.454 49.5566 124.039 51.5698 123.754C53.583 123.47 57.9449 122.616 57.9449 122.616L50.8987 94.7239L62.6424 80.2087L64.6556 74.5165C64.6556 74.5165 63.9845 61.1398 61.3003 55.7321C61.3003 55.7321 66.4293 41.4777 67.2201 37.3628Z" fill="#3F3D56"/>
<path d="M81.3276 34.6709L87.472 39.7939L99.5512 42.9246L93.8471 69.6781L90.4918 75.3703L91.1628 81.0625C91.1628 81.0625 103.736 92.5014 105.591 115.216C106.565 127.145 104.552 126.576 104.552 126.576L79.7547 126.316L75.7283 79.0702L83.4456 43.4938L81.3276 34.6709Z" fill="#3F3D56"/>
<path d="M106.597 102.978C106.597 102.978 109.953 115.216 103.242 116.639C96.5314 118.062 98.8802 102.978 98.8802 102.978H106.597Z" fill="#A0616A"/>
<path d="M47.4129 90.2749C47.4129 90.2749 60.3332 96.4203 57.05 101.585C53.7667 106.749 42.2118 95.1109 42.2118 95.1109L47.4129 90.2749Z" fill="#A0616A"/>
<path d="M94.5182 43.4935L99.5513 42.9243C99.5513 42.9243 102.571 46.3396 102.907 48.9011C103.242 51.4626 108.611 94.7235 108.611 94.7235L113.979 102.977C113.979 102.977 113.644 104.4 110.959 104.4H108.275L107.269 107.816C107.269 107.816 105.255 101.27 97.538 104.685L94.5182 103.831L96.5314 100.7C96.5314 100.7 94.5182 85.616 94.5182 78.5007C94.5182 71.3854 93.8472 63.7009 93.8472 63.7009L94.5182 43.4935Z" fill="#3F3D56"/>
<path d="M70.2105 216.207C72.8456 216.207 74.9817 215.527 74.9817 214.689C74.9817 213.851 72.8456 213.171 70.2105 213.171C67.5755 213.171 65.4393 213.851 65.4393 214.689C65.4393 215.527 67.5755 216.207 70.2105 216.207Z" fill="#2F2E41"/>
<path d="M102.416 216.207C105.051 216.207 107.188 215.527 107.188 214.689C107.188 213.851 105.051 213.171 102.416 213.171C99.7813 213.171 97.6451 213.851 97.6451 214.689C97.6451 215.527 99.7813 216.207 102.416 216.207Z" fill="#2F2E41"/>
<path d="M52.9119 44.917L49.2211 45.2016L40.8327 72.8089C40.8327 72.8089 37.4774 91.024 38.1484 91.8778C38.8195 92.7317 38.1484 94.1547 37.4774 94.7239C36.8063 95.2932 40.1616 103.262 43.517 102.978C46.8723 102.693 48.2145 101.839 48.2145 101.839C48.2145 101.839 45.1947 94.4393 52.9119 91.8778L54.9251 86.1856L52.9119 76.7934L55.5962 63.7013L52.9119 44.917Z" fill="#3F3D56"/>
<path d="M85.1233 27.413C85.4013 27.413 85.6266 26.7759 85.6266 25.99C85.6266 25.204 85.4013 24.5669 85.1233 24.5669C84.8453 24.5669 84.62 25.204 84.62 25.99C84.62 26.7759 84.8453 27.413 85.1233 27.413Z" fill="#A0616A"/>
<path d="M62.3069 27.413C62.5849 27.413 62.8102 26.7759 62.8102 25.99C62.8102 25.204 62.5849 24.5669 62.3069 24.5669C62.0289 24.5669 61.8036 25.204 61.8036 25.99C61.8036 26.7759 62.0289 27.413 62.3069 27.413Z" fill="#A0616A"/>
<path d="M73.7151 34.6706C79.8303 34.6706 84.7877 30.4655 84.7877 25.2784C84.7877 20.0912 79.8303 15.8862 73.7151 15.8862C67.5998 15.8862 62.6425 20.0912 62.6425 25.2784C62.6425 30.4655 67.5998 34.6706 73.7151 34.6706Z" fill="#A0616A"/>
<path d="M68.85 20.2981L68.5671 22.575H76.2318L77.2384 20.8673L77.0263 22.575H86.2978L79.9226 14.0366L65.8302 14.3212L62.4749 22.575H67.5079L68.85 20.2981Z" fill="#2F2E41"/>
<path d="M259.769 152.642C279.227 152.642 295 139.263 295 122.758C295 106.254 279.227 92.874 259.769 92.874C240.311 92.874 224.538 106.254 224.538 122.758C224.538 139.263 240.311 152.642 259.769 152.642Z" fill="#3F3D56"/>
<path d="M262.118 95.4355C276.572 95.4355 288.289 85.4963 288.289 73.2358C288.289 60.9753 276.572 51.0361 262.118 51.0361C247.663 51.0361 235.946 60.9753 235.946 73.2358C235.946 85.4963 247.663 95.4355 262.118 95.4355Z" fill="#3F3D56"/>
<path d="M262.118 52.4587C274.533 52.4587 284.598 43.9212 284.598 33.3897C284.598 22.8583 274.533 14.3208 262.118 14.3208C249.702 14.3208 239.637 22.8583 239.637 33.3897C239.637 43.9212 249.702 52.4587 262.118 52.4587Z" fill="#3F3D56"/>
<path d="M262.453 17.167C267.271 17.167 271.177 13.8539 271.177 9.76708C271.177 5.68023 267.271 2.36719 262.453 2.36719C257.635 2.36719 253.729 5.68023 253.729 9.76708C253.729 13.8539 257.635 17.167 262.453 17.167Z" fill="#7011CE"/>
<path d="M21.679 201.117C23.9292 208.172 31.6367 212.542 31.6367 212.542C31.6367 212.542 35.6959 205.472 33.4457 198.417C31.1955 191.361 23.488 186.991 23.488 186.991C23.488 186.991 19.4288 194.061 21.679 201.117Z" fill="#3F3D56"/>
<path d="M24.9856 199.6C31.1602 204.699 31.9144 212.537 31.9144 212.537C31.9144 212.537 22.6576 212.108 16.483 207.009C10.3084 201.911 9.5542 194.073 9.5542 194.073C9.5542 194.073 18.811 194.502 24.9856 199.6Z" fill="#7011CE"/>
<path d="M161.457 89.1736C169.055 89.1736 175.214 83.9492 175.214 77.5045C175.214 71.0599 169.055 65.8354 161.457 65.8354C153.86 65.8354 147.7 71.0599 147.7 77.5045C147.7 83.9492 153.86 89.1736 161.457 89.1736Z" fill="#F2F2F2"/>
</svg>
