<svg width="700" height="383" viewBox="0 0 700 383" fill="none" xmlns="http://www.w3.org/2000/svg">
<g clip-path="url(#clip0)">
<path d="M617.686 305.289C663.147 305.289 700 268.436 700 222.976C700 177.515 663.147 140.662 617.686 140.662C572.226 140.662 535.373 177.515 535.373 222.976C535.373 268.436 572.226 305.289 617.686 305.289Z" fill="#F2F2F2"/>
<path d="M604.302 293.243C649.763 293.243 686.616 256.39 686.616 210.93C686.616 165.469 649.763 128.616 604.302 128.616C558.842 128.616 521.989 165.469 521.989 210.93C521.989 256.39 558.842 293.243 604.302 293.243Z" fill="#000D85"/>
<path d="M584.99 381.363H478.978V382.618H584.99V381.363Z" fill="#F5F95A"/>
<path d="M429.637 280.529C429.637 224.071 475.569 178.139 532.027 178.139C588.485 178.139 634.417 224.071 634.417 280.529C634.417 336.987 588.485 382.919 532.027 382.919C475.569 382.919 429.637 336.987 429.637 280.529ZM430.975 280.529C430.975 336.249 476.307 381.58 532.027 381.58C587.747 381.58 633.078 336.249 633.078 280.529C633.078 224.809 587.747 179.477 532.027 179.477C476.307 179.477 430.975 224.809 430.975 280.529Z" fill="#F5F95A"/>
<path d="M451.052 97.0363L0.669218 30.1147L0.33461 381.788H585.229L451.052 97.0363ZM120.459 227.533C120.233 227.533 120.013 227.511 119.79 227.5V254.302H47.5143V182.027H75.6214C75.6214 178.655 76.961 175.42 79.3456 173.036C81.7301 170.651 84.9643 169.312 88.3365 169.312C91.7088 169.312 94.9429 170.651 97.3275 173.036C99.712 175.42 101.052 178.655 101.052 182.027H119.79V202.137C120.013 202.125 120.233 202.103 120.459 202.103C123.831 202.103 127.065 203.443 129.45 205.827C131.834 208.212 133.174 211.446 133.174 214.818C133.174 218.191 131.834 221.425 129.45 223.809C127.065 226.194 123.831 227.533 120.459 227.533ZM397.18 207.792C397.201 222.81 393.968 237.654 387.704 251.304C387.028 252.783 386.316 254.242 385.569 255.681C382.575 261.479 379.042 266.982 375.015 272.117C372.954 274.747 370.775 277.27 368.477 279.685C366.791 281.466 365.042 283.183 363.23 284.838C347.391 299.362 327.442 308.622 306.126 311.346C301.7 311.908 297.243 312.19 292.782 312.189C265.837 312.22 239.923 301.831 220.461 283.196C200.999 264.56 189.497 239.12 188.36 212.199C187.223 185.277 196.54 158.959 214.362 138.749C232.184 118.539 257.13 106.002 283.982 103.762C284.216 103.742 284.457 103.722 284.698 103.702C286.518 103.561 288.359 103.468 290.206 103.427C291.062 103.407 291.919 103.394 292.782 103.394C298.621 103.391 304.45 103.877 310.208 104.846C311.005 104.973 311.794 105.12 312.584 105.268C313.073 105.361 313.554 105.462 314.036 105.562C337.531 110.452 358.625 123.285 373.768 141.903C388.911 160.521 397.179 183.786 397.18 207.785V207.792Z" fill="#D3C9C9"/>
<path d="M555.709 38.8455H435.834V40.1924H555.709V38.8455Z" fill="#F5F95A"/>
<path d="M555.709 48.2739H435.834V49.6208H555.709V48.2739Z" fill="#F5F95A"/>
<path d="M555.709 57.7021H435.834V59.049H555.709V57.7021Z" fill="#F5F95A"/>
<path d="M586.233 382.792H0V0H586.233V382.792ZM1.33843 381.453H584.895V1.33843H1.33843V381.453Z" fill="#F5F95A"/>
<path d="M291.279 37.578H291.279C271.081 43.0495 259.63 65.656 265.702 88.0711L273.417 116.55L282.176 114.177L284.388 102.252L285.979 113.147L342.277 97.8961L344.288 87.055L345.734 96.9595L352.073 95.2424L346.015 72.8816C339.028 47.0877 314.522 31.2818 291.279 37.578Z" fill="#000D85"/>
<path d="M365.018 275.844L358.326 311.982L380.41 308.636L381.414 270.825L365.018 275.844Z" fill="#FFB8B8"/>
<path d="M298.765 101.848C312.071 101.848 322.857 91.0614 322.857 77.7558C322.857 64.4503 312.071 53.6641 298.765 53.6641C285.46 53.6641 274.673 64.4503 274.673 77.7558C274.673 91.0614 285.46 101.848 298.765 101.848Z" fill="#FFB8B8"/>
<path d="M291.07 95.4905L289.731 108.875L279.024 114.898L307.131 177.135L328.546 125.605L314.492 114.898L313.154 89.4675L291.07 95.4905Z" fill="#FFB8B8"/>
<path d="M423.239 245.061C422.396 258.98 398.685 269.975 381.272 276.199C376.253 277.999 371.756 279.398 368.477 280.355C366.436 280.951 364.87 281.379 363.946 281.627C363.337 281.787 363.01 281.867 363.01 281.867V267.145L306.126 271.829V312.016C301.7 312.578 297.243 312.86 292.782 312.859C275.193 312.886 257.884 308.449 242.477 299.963C242.096 294.937 241.674 289.798 241.212 284.544C240.717 278.883 240.503 273.502 240.523 268.403C240.684 228.524 255.226 205.751 260.988 198.296C261.707 197.336 262.478 196.416 263.296 195.539L266.642 186.839L264.22 171.393L256.042 119.248L255.935 118.579C258.746 116.116 266.194 114.543 272.619 113.613C276.928 112.984 280.783 112.643 282.483 112.502C283.018 112.462 283.339 112.442 283.4 112.435H283.406L310.811 162.078L320.247 119.281L346.279 131.294C346.279 131.294 342.264 148.024 342.264 162.078C342.26 163.957 342.018 165.828 341.541 167.646C340.427 171.677 338.538 175.453 335.98 178.761C333.739 181.769 331.129 184.483 328.21 186.839L322.857 201.562L328.21 221.638L365.064 210.649L378.067 206.775C379.162 206.448 380.278 206.196 381.406 206.018C386.62 205.188 391.962 205.96 396.727 208.233C401.491 210.506 405.453 214.172 408.088 218.747L423.239 245.061Z" fill="#FF5D53"/>
<path d="M360.333 305.959C360.333 305.959 379.482 307.837 383.292 299.202L402.494 314.658C402.494 314.658 437.27 323.972 417.886 332.058C399.817 339.596 381.748 331.548 381.748 333.397C381.748 333.397 376.394 328.712 370.371 332.058C364.348 335.404 346.28 332.058 346.949 326.704C347.618 321.351 350.295 301.943 360.333 305.959Z" fill="#000D85"/>
<path d="M304.704 45.9419C299.752 42.2086 293.525 40.681 287.479 42.3187L286.761 42.5132C272.917 46.2634 265.088 61.8304 269.274 77.2831V77.2831L273.913 76.0266L273.117 70.1215L275.76 75.5261L303.272 68.0734L304.27 62.6249L305.001 67.6051L310.413 66.1389C316.336 77.9974 316.105 91.523 309.72 106.716L318.939 104.218L320.935 93.3213L322.397 103.282L339.972 98.5207L337.418 75.3933C332.916 58.7744 319.442 47.2977 304.704 45.9419Z" fill="#000D85"/>
<path d="M310.476 43.2912C317.129 43.2912 322.522 37.8981 322.522 31.2454C322.522 24.5926 317.129 19.1995 310.476 19.1995C303.824 19.1995 298.431 24.5926 298.431 31.2454C298.431 37.8981 303.824 43.2912 310.476 43.2912Z" fill="#000D85"/>
<path d="M309.807 37.9377C306.987 37.9393 304.255 36.9505 302.089 35.1439C299.923 33.3372 298.46 30.8274 297.956 28.0523C297.451 25.2772 297.937 22.4131 299.328 19.9596C300.72 17.5061 302.928 15.6191 305.569 14.6277C303.883 14.8441 302.262 15.415 300.812 16.3031C299.363 17.1911 298.118 18.3761 297.159 19.78C296.201 21.1838 295.55 22.7748 295.251 24.4481C294.951 26.1215 295.01 27.8392 295.422 29.4884C295.834 31.1375 296.591 32.6807 297.643 34.0162C298.695 35.3517 300.017 36.4494 301.524 37.237C303.03 38.0246 304.686 38.4842 306.383 38.5855C308.08 38.6869 309.779 38.4278 311.369 37.8252C310.851 37.8964 310.33 37.934 309.807 37.9377Z" fill="#000D85"/>
<path d="M314.157 82.1056C315.82 82.1056 317.169 80.1581 317.169 77.7557C317.169 75.3533 315.82 73.4058 314.157 73.4058C312.494 73.4058 311.146 75.3533 311.146 77.7557C311.146 80.1581 312.494 82.1056 314.157 82.1056Z" fill="#FFB8B8"/>
<path d="M248.574 158.731L246.566 185.5C246.566 185.5 237.197 200.222 235.19 231.676L234.52 251.083C234.52 251.083 220.467 278.521 231.844 277.851C243.22 277.182 242.551 251.752 242.551 251.752L262.628 193.53V165.423L248.574 158.731Z" fill="#FFB8B8"/>
<path d="M260.62 119.247H255.935C255.935 119.247 248.574 123.932 242.551 144.008C236.528 164.085 235.859 164.754 235.859 164.754L267.312 172.115L260.62 119.247Z" fill="#FF5D53"/>
<path d="M412.348 128.61C415.717 128.61 418.447 125.88 418.447 122.511C418.447 119.143 415.717 116.412 412.348 116.412C408.98 116.412 406.249 119.143 406.249 122.511C406.249 125.88 408.98 128.61 412.348 128.61Z" fill="#D0CDE1"/>
<path d="M447.952 238.766C449.449 238.766 450.663 237.552 450.663 236.055C450.663 234.558 449.449 233.345 447.952 233.345C446.455 233.345 445.241 234.558 445.241 236.055C445.241 237.552 446.455 238.766 447.952 238.766Z" fill="#D0CDE1"/>
<path d="M409.807 365.248C411.304 365.248 412.518 364.034 412.518 362.537C412.518 361.04 411.304 359.827 409.807 359.827C408.31 359.827 407.096 361.04 407.096 362.537C407.096 364.034 408.31 365.248 409.807 365.248Z" fill="#D0CDE1"/>
<path d="M47.0918 357.218C48.5888 357.218 49.8024 356.004 49.8024 354.507C49.8024 353.01 48.5888 351.796 47.0918 351.796C45.5947 351.796 44.3811 353.01 44.3811 354.507C44.3811 356.004 45.5947 357.218 47.0918 357.218Z" fill="#D0CDE1"/>
<path d="M174.912 125.669C176.409 125.669 177.623 124.455 177.623 122.958C177.623 121.461 176.409 120.247 174.912 120.247C173.415 120.247 172.201 121.461 172.201 122.958C172.201 124.455 173.415 125.669 174.912 125.669Z" fill="#D0CDE1"/>
<path d="M449.46 171.618H448.104V170.263H447.426V171.618H446.071V172.296H447.426V173.651H448.104V172.296H449.46V171.618Z" fill="#D0CDE1"/>
<path d="M495.635 298.769H494.28V297.414H493.602V298.769H492.247V299.447H493.602V300.802H494.28V299.447H495.635V298.769Z" fill="#D0CDE1"/>
<path d="M341.716 354.983H340.361V353.628H339.683V354.983H338.328V355.661H339.683V357.016H340.361V355.661H341.716V354.983Z" fill="#D0CDE1"/>
<path d="M253.379 92.6503H252.024V91.2952H251.346V92.6503H249.991V93.3282H251.346V94.6834H252.024V93.3282H253.379V92.6503Z" fill="#D0CDE1"/>
<path d="M13.7999 145.518H12.4447V144.163H11.7668V145.518H10.4117V146.196H11.7668V147.552H12.4447V146.196H13.7999V145.518Z" fill="#D0CDE1"/>
<path d="M39.8993 98.0041H38.5442V96.6489H37.8663V98.0041H36.5111V98.682H37.8663V100.037H38.5442V98.682H39.8993V98.0041Z" fill="#D0CDE1"/>
<path d="M229.288 356.991H227.932V355.636H227.254V356.991H225.899V357.669H227.254V359.024H227.932V357.669H229.288V356.991Z" fill="#D0CDE1"/>
<path d="M127.567 77.2585H126.211V75.9033H125.534V77.2585H124.178V77.9364H125.534V79.2916H126.211V77.9364H127.567V77.2585Z" fill="#D0CDE1"/>
<path d="M15.8076 233.186H14.4524V231.831H13.7745V233.186H12.4193V233.864H13.7745V235.219H14.4524V233.864H15.8076V233.186Z" fill="#D0CDE1"/>
<path d="M118.198 157.564H116.842V156.209H116.165V157.564H114.809V158.242H116.165V159.597H116.842V158.242H118.198V157.564Z" fill="#D0CDE1"/>
<path d="M120.205 351.637H118.85V350.282H118.172V351.637H116.817V352.315H118.172V353.67H118.85V352.315H120.205V351.637Z" fill="#D0CDE1"/>
<path d="M181.104 308.138H179.749V306.783H179.071V308.138H177.716V308.816H179.071V310.171H179.749V308.816H181.104V308.138Z" fill="#D0CDE1"/>
<path d="M516.381 360.337H515.026V358.982H514.348V360.337H512.993V361.015H514.348V362.37H515.026V361.015H516.381V360.337Z" fill="#D0CDE1"/>
<path d="M18.0688 20.7456C21.7648 20.7456 24.761 17.7495 24.761 14.0535C24.761 10.3575 21.7648 7.36133 18.0688 7.36133C14.3729 7.36133 11.3767 10.3575 11.3767 14.0535C11.3767 17.7495 14.3729 20.7456 18.0688 20.7456Z" fill="#4DCE11"/>
<path d="M38.1453 20.7456C41.8413 20.7456 44.8375 17.7495 44.8375 14.0535C44.8375 10.3575 41.8413 7.36133 38.1453 7.36133C34.4493 7.36133 31.4532 10.3575 31.4532 14.0535C31.4532 17.7495 34.4493 20.7456 38.1453 20.7456Z" fill="#F5F95A"/>
<path d="M58.2218 20.7456C61.9178 20.7456 64.9139 17.7495 64.9139 14.0535C64.9139 10.3575 61.9178 7.36133 58.2218 7.36133C54.5258 7.36133 51.5296 10.3575 51.5296 14.0535C51.5296 17.7495 54.5258 20.7456 58.2218 20.7456Z" fill="#FF5D53"/>
<path d="M441.273 333.419H321.398V334.766H441.273V333.419Z" fill="#D0CDE1"/>
<path d="M388.145 240.918H315.87V313.193H388.145V240.918Z" fill="#D3C9C9"/>
<path d="M329.924 297.132V240.918H328.585V298.47H388.145V297.132H329.924Z" fill="#F5F95A"/>
<path d="M358.325 156.723L369.033 182.823C369.033 182.823 380.41 196.207 382.417 210.93L385.763 228.33C385.763 228.33 393.794 259.113 381.079 257.775C368.364 256.437 371.71 226.991 371.71 226.991L369.702 218.291L358.325 199.553L341.538 167.645L358.325 156.723Z" fill="#FFB8B8"/>
<path d="M337.58 128.617L346.28 131.294L365.018 159.401L330.888 182.154L337.58 128.617Z" fill="#FF5D53"/>
<path d="M356.023 286.425C365.263 286.425 372.753 278.934 372.753 269.694C372.753 260.454 365.263 252.964 356.023 252.964C346.783 252.964 339.293 260.454 339.293 269.694C339.293 278.934 346.783 286.425 356.023 286.425Z" fill="#F5F95A"/>
<path d="M352.008 251.625C359.03 251.625 364.723 245.932 364.723 238.91C364.723 231.888 359.03 226.195 352.008 226.195C344.985 226.195 339.293 231.888 339.293 238.91C339.293 245.932 344.985 251.625 352.008 251.625Z" fill="#D3C9C9"/>
<path d="M388.145 287.094C395.168 287.094 400.86 281.401 400.86 274.379C400.86 267.356 395.168 261.664 388.145 261.664C381.123 261.664 375.43 267.356 375.43 274.379C375.43 281.401 381.123 287.094 388.145 287.094Z" fill="#D3C9C9"/>
</g>
<defs>
<clipPath id="clip0">
<rect width="700" height="382.919" fill="white"/>
</clipPath>
</defs>
</svg>
