<svg width="800" height="500" viewBox="0 0 800 500" fill="none" xmlns="http://www.w3.org/2000/svg">
<g clip-path="url(#clip0)">
<path d="M209.079 304.392C293.135 304.392 361.275 236.251 361.275 152.196C361.275 68.1405 293.135 0 209.079 0C125.024 0 56.8835 68.1405 56.8835 152.196C56.8835 236.251 125.024 304.392 209.079 304.392Z" fill="#F2F2F2"/>
<path d="M0 36.543C0 91.9179 34.7393 136.727 77.6705 136.727L0 36.543Z" fill="#F5F95A"/>
<path d="M77.6705 136.725C77.6705 80.7282 116.438 35.416 164.346 35.416L77.6705 136.725Z" fill="#6C63FF"/>
<path d="M28.1415 41.5625C28.1415 94.1628 50.2941 136.726 77.6705 136.726L28.1415 41.5625Z" fill="#6C63FF"/>
<path d="M77.6705 136.728C77.6705 65.1762 122.479 7.27734 177.854 7.27734L77.6705 136.728Z" fill="#F5F95A"/>
<path d="M61.3306 137.432C61.3306 137.432 72.3456 137.093 75.6652 134.729C78.9848 132.365 92.609 129.543 93.4325 133.334C94.256 137.125 109.986 152.189 97.5501 152.29C85.1143 152.39 68.6548 150.352 65.3415 148.334C62.0283 146.316 61.3306 137.432 61.3306 137.432Z" fill="#A8A8A8"/>
<path opacity="0.2" d="M97.7721 150.97C85.3362 151.07 68.8767 149.033 65.5635 147.015C63.0403 145.478 62.0348 139.962 61.6984 137.418C61.4654 137.428 61.3307 137.432 61.3307 137.432C61.3307 137.432 62.0283 146.316 65.3416 148.334C68.6548 150.352 85.1143 152.39 97.5502 152.289C101.14 152.261 102.38 150.983 102.312 149.092C101.813 150.235 100.444 150.948 97.7721 150.97Z" fill="black"/>
<path d="M141.913 321.498C215.708 321.498 275.531 313.36 275.531 303.32C275.531 293.281 215.708 285.143 141.913 285.143C68.118 285.143 8.29512 293.281 8.29512 303.32C8.29512 313.36 68.118 321.498 141.913 321.498Z" fill="#3F3D56"/>
<path opacity="0.1" d="M141.913 318.581C203.87 318.581 254.095 311.749 254.095 303.32C254.095 294.891 203.87 288.059 141.913 288.059C79.9568 288.059 29.7312 294.891 29.7312 303.32C29.7312 311.749 79.9568 318.581 141.913 318.581Z" fill="black"/>
<path d="M597.787 499.461C709.466 499.461 800 487.144 800 471.951C800 456.758 709.466 444.441 597.787 444.441C486.107 444.441 395.573 456.758 395.573 471.951C395.573 487.144 486.107 499.461 597.787 499.461Z" fill="#3F3D56"/>
<path d="M221.941 477.757C289.028 477.757 343.412 470.359 343.412 461.232C343.412 452.106 289.028 444.707 221.941 444.707C154.855 444.707 100.47 452.106 100.47 461.232C100.47 470.359 154.855 477.757 221.941 477.757Z" fill="#3F3D56"/>
<path d="M330.55 447.3C394.859 463.735 518.473 425.864 532.049 382.992" stroke="#D3C9C9" stroke-width="2" stroke-miterlimit="10"/>
<path d="M221.227 185.064C221.227 185.064 314.116 159.341 319.832 242.227C325.549 325.113 243.377 348.692 307.685 365.127" stroke="#D3C9C9" stroke-width="2" stroke-miterlimit="10"/>
<path d="M131.483 383.907C131.483 383.907 159.401 376.176 161.119 401.088C162.837 426 138.14 433.087 157.468 438.026" stroke="#D3C9C9" stroke-width="2" stroke-miterlimit="10"/>
<path d="M556.412 402.454L550.783 438.392C550.783 438.392 523.072 453.113 542.556 453.546C562.041 453.979 653.833 453.546 653.833 453.546C653.833 453.546 671.586 453.546 643.442 437.959L637.813 400.289L556.412 402.454Z" fill="#D3C9C9"/>
<path opacity="0.1" d="M538.637 453.156C543.062 449.219 550.783 445.116 550.783 445.116L556.412 409.179L637.813 409.255L643.442 444.683C650.005 448.318 654.07 451.105 656.449 453.242C660.063 452.417 664.014 449.352 643.442 437.959L637.813 400.289L556.412 402.454L550.783 438.392C550.783 438.392 527.498 450.764 538.637 453.156Z" fill="black"/>
<path d="M767.154 151.975H426.205C419.084 151.975 413.311 157.748 413.311 164.869V394.541C413.311 401.662 419.084 407.435 426.205 407.435H767.154C774.275 407.435 780.048 401.662 780.048 394.541V164.869C780.048 157.748 774.275 151.975 767.154 151.975Z" fill="#D3C9C9"/>
<path d="M767.708 165.611H425.651V356.99H767.708V165.611Z" fill="#3F3D56"/>
<path d="M596.679 161.717C597.875 161.717 598.844 160.747 598.844 159.552C598.844 158.356 597.875 157.387 596.679 157.387C595.484 157.387 594.514 158.356 594.514 159.552C594.514 160.747 595.484 161.717 596.679 161.717Z" fill="#F2F2F2"/>
<path d="M780.048 372.146V394.54C780.048 396.234 779.715 397.911 779.067 399.475C778.419 401.04 777.469 402.461 776.272 403.659C775.074 404.856 773.653 405.806 772.088 406.454C770.524 407.102 768.847 407.435 767.154 407.435H426.205C424.512 407.435 422.835 407.102 421.27 406.454C419.706 405.806 418.284 404.856 417.087 403.659C415.889 402.461 414.94 401.04 414.292 399.475C413.644 397.911 413.31 396.234 413.311 394.54V372.146H780.048Z" fill="#D3C9C9"/>
<path d="M692.369 476.929V481.259H459.423V477.795L459.744 476.929L465.485 461.342H687.606L692.369 476.929Z" fill="#D3C9C9"/>
<path d="M782.014 472.69C781.589 474.504 779.987 476.418 776.368 478.228C763.378 484.723 736.966 476.496 736.966 476.496C736.966 476.496 716.616 473.032 716.616 463.939C717.187 463.548 717.783 463.194 718.4 462.879C723.861 459.989 741.968 452.86 774.075 463.18C776.44 463.923 778.553 465.307 780.178 467.18C781.479 468.703 782.499 470.635 782.014 472.69Z" fill="#D3C9C9"/>
<path opacity="0.1" d="M782.014 472.688C766.115 478.78 751.943 479.235 737.399 469.133C730.064 464.041 723.401 462.781 718.4 462.877C723.861 459.987 741.968 452.858 774.075 463.179C776.44 463.921 778.553 465.306 780.178 467.178C781.479 468.701 782.499 470.633 782.014 472.688Z" fill="black"/>
<path d="M762.079 469.134C765.188 469.134 767.708 468.358 767.708 467.402C767.708 466.445 765.188 465.67 762.079 465.67C758.97 465.67 756.45 466.445 756.45 467.402C756.45 468.358 758.97 469.134 762.079 469.134Z" fill="#F2F2F2"/>
<path d="M596.679 398.125C601.223 398.125 604.906 394.442 604.906 389.899C604.906 385.355 601.223 381.672 596.679 381.672C592.136 381.672 588.453 385.355 588.453 389.899C588.453 394.442 592.136 398.125 596.679 398.125Z" fill="#F2F2F2"/>
<path opacity="0.1" d="M692.369 476.928V481.258H459.423V477.794L459.744 476.928H692.369Z" fill="black"/>
<path d="M226.228 113.611H77.605V286.529H226.228V113.611Z" fill="#D3C9C9"/>
<path d="M241.234 96.4629H62.5998V157.913H241.234V96.4629Z" fill="#3F3D56"/>
<path d="M241.234 169.344H62.5998V230.794H241.234V169.344Z" fill="#3F3D56"/>
<path d="M241.234 242.227H62.5998V303.677H241.234V242.227Z" fill="#3F3D56"/>
<path opacity="0.4" d="M205.507 107.182H194.074V118.614H205.507V107.182Z" fill="#6C63FF"/>
<path opacity="0.8" d="M221.941 107.182H210.509V118.614H221.941V107.182Z" fill="#6C63FF"/>
<path d="M238.375 107.182H226.943V118.614H238.375V107.182Z" fill="#6C63FF"/>
<path opacity="0.4" d="M205.507 179.348H194.074V190.78H205.507V179.348Z" fill="#6C63FF"/>
<path opacity="0.8" d="M221.941 179.348H210.509V190.78H221.941V179.348Z" fill="#6C63FF"/>
<path d="M238.375 179.348H226.943V190.78H238.375V179.348Z" fill="#6C63FF"/>
<path opacity="0.4" d="M205.507 251.516H194.074V262.948H205.507V251.516Z" fill="#6C63FF"/>
<path opacity="0.8" d="M221.941 251.516H210.509V262.948H221.941V251.516Z" fill="#6C63FF"/>
<path d="M238.375 251.516H226.943V262.948H238.375V251.516Z" fill="#6C63FF"/>
<path d="M226.228 440.869C257.404 440.869 282.677 415.596 282.677 384.421C282.677 353.245 257.404 327.973 226.228 327.973C195.053 327.973 169.78 353.245 169.78 384.421C169.78 415.596 195.053 440.869 226.228 440.869Z" fill="#F5F95A"/>
<path d="M217.654 428.721H200.505V459.446H217.654V428.721Z" fill="#F5F95A"/>
<path d="M251.952 428.721H234.803V459.446H251.952V428.721Z" fill="#F5F95A"/>
<path d="M214.796 465.163C222.688 465.163 229.086 462.764 229.086 459.804C229.086 456.845 222.688 454.445 214.796 454.445C206.903 454.445 200.505 456.845 200.505 459.804C200.505 462.764 206.903 465.163 214.796 465.163Z" fill="#F5F95A"/>
<path d="M249.093 464.448C256.986 464.448 263.384 462.049 263.384 459.089C263.384 456.13 256.986 453.73 249.093 453.73C241.201 453.73 234.803 456.13 234.803 459.089C234.803 462.049 241.201 464.448 249.093 464.448Z" fill="#F5F95A"/>
<path d="M227.657 389.421C238.312 389.421 246.95 380.783 246.95 370.128C246.95 359.473 238.312 350.836 227.657 350.836C217.002 350.836 208.365 359.473 208.365 370.128C208.365 380.783 217.002 389.421 227.657 389.421Z" fill="white"/>
<path d="M227.657 376.561C231.209 376.561 234.088 373.682 234.088 370.13C234.088 366.578 231.209 363.699 227.657 363.699C224.106 363.699 221.227 366.578 221.227 370.13C221.227 373.682 224.106 376.561 227.657 376.561Z" fill="#3F3D56"/>
<path d="M171.472 331.925C166.914 311.512 181.484 290.886 204.014 285.855C226.545 280.824 248.505 293.293 253.063 313.706C257.621 334.118 242.689 341.647 220.158 346.678C197.627 351.709 176.03 352.337 171.472 331.925Z" fill="#FF5D53"/>
<path d="M279.171 373.16C293.502 367.027 303.558 358.408 301.632 353.909C299.707 349.41 286.529 350.736 272.199 356.869C257.868 363.002 247.812 371.622 249.738 376.12C251.663 380.619 264.841 379.294 279.171 373.16Z" fill="#F5F95A"/>
<path d="M173.42 411.031C187.75 404.898 197.807 396.279 195.881 391.78C193.956 387.282 180.778 388.607 166.447 394.74C152.117 400.874 142.061 409.493 143.986 413.991C145.912 418.49 159.09 417.165 173.42 411.031Z" fill="#F5F95A"/>
<path d="M259.097 400.853C259.097 406.378 244.872 417.287 229.086 417.287C213.301 417.287 198.361 407.092 198.361 401.567C198.361 396.042 213.301 397.28 229.086 397.28C244.872 397.28 259.097 395.328 259.097 400.853Z" fill="white"/>
<path d="M474.4 245.6V242H478V245.6H474.4ZM474.616 259.52L475.24 248.432H477.16L477.784 259.52H474.616ZM495.151 252.512L492.367 254.12H485.335L482.551 252.512V238.688L485.335 237.08H492.367L495.151 238.688V252.512ZM484.951 239.24V251.96H492.751V239.24H484.951ZM509.432 252.512L506.649 254.12H502.017L499.233 252.512V243.488L502.017 241.88H506.649L509.432 243.488V252.512ZM501.561 243.968V252.032H507.105V243.968H501.561ZM520.928 254.12H517.304L515.6 253.136V258.8H513.272V241.88H515.024L515.6 242.864L517.304 241.88H520.928L523.712 243.488V252.512L520.928 254.12ZM515.6 243.968V252.032H521.384V243.968H515.6ZM536.569 248.48V252.392L533.785 254H527.545V251.912H534.241V248.96H530.329L527.545 247.352V243.608L530.329 242H536.329V244.088H529.873V246.872H533.785L536.569 248.48ZM540.892 254V250.4H544.492V254H540.892ZM541.732 247.568L541.108 236.48H544.276L543.652 247.568H541.732ZM555.277 245.12V238.688L558.061 237.08H563.653L566.437 238.688V241.16H564.037V239.24H557.677V244.328H563.653L566.437 245.936V252.512L563.653 254.12H557.821L555.037 252.512V250.04H557.437V251.96H564.037V246.728H558.061L555.277 245.12ZM579.986 251.912V254H573.29L570.506 252.392V243.488L573.29 241.88H577.202L579.986 243.488V248.816H572.834V251.912H579.986ZM572.834 243.968V246.728H577.658V243.968H572.834ZM592.381 254H590.053V236.48H592.381V242.864L594.085 241.88H597.709L600.493 243.488V254H598.165V243.968H592.381V254ZM606.174 249.08V252.032H610.998V249.08H606.174ZM606.63 254.12L603.846 252.512V248.6L606.63 246.992H610.998V244.088H605.046V242H610.542L613.326 243.608V254.12H612.702L610.998 253.136L609.294 254.12H606.63ZM625.732 244.088V251.912H632.404V254H626.188L623.404 252.392V243.608L626.188 242H632.404V244.088H625.732ZM637.604 249.08V252.032H642.428V249.08H637.604ZM638.06 254.12L635.276 252.512V248.6L638.06 246.992H642.428V244.088H636.476V242H641.972L644.756 243.608V254.12H644.132L642.428 253.136L640.724 254.12H638.06ZM650.928 242V254H648.6V242H650.928ZM648.12 239.84L650.376 236.768H653.496L650.04 239.84H648.12ZM657.548 241.88H661.172L662.876 242.864V236.48H665.204V254.12H663.452L662.876 253.136L661.172 254.12H657.548L654.764 252.512V243.488L657.548 241.88ZM662.876 252.032V243.968H657.092V252.032H662.876ZM679.237 252.512L676.453 254.12H671.821L669.037 252.512V243.488L671.821 241.88H676.453L679.237 243.488V252.512ZM671.365 243.968V252.032H676.909V243.968H671.365ZM698.791 251.912V254H692.095L689.311 252.392V243.488L692.095 241.88H696.007L698.791 243.488V248.816H691.639V251.912H698.791ZM691.639 243.968V246.728H696.463V243.968H691.639ZM705.407 254L702.623 252.392V236.48H704.951V251.912H707.831V254H705.407ZM482.944 282.48V286.392L480.16 288H473.92V285.912H480.616V282.96H476.704L473.92 281.352V277.608L476.704 276H482.704V278.088H476.248V280.872H480.16L482.944 282.48ZM496.267 285.912V288H489.571L486.787 286.392V277.488L489.571 275.88H493.483L496.267 277.488V282.816H489.115V285.912H496.267ZM489.115 277.968V280.728H493.939V277.968H489.115ZM506.796 278.088H502.428V288H500.1V276H501.852L502.428 276.984L504.132 276H506.796V278.088ZM510.268 276L513.796 285.792H513.844L517.396 276H519.676L515.236 288H512.428L507.988 276H510.268ZM524.412 276V288H522.084V276H524.412ZM521.964 273.048V270.48H524.532V273.048H521.964ZM531.032 275.88H534.656L536.36 276.864V270.48H538.688V288.12H536.936L536.36 287.136L534.656 288.12H531.032L528.248 286.512V277.488L531.032 275.88ZM536.36 286.032V277.968H530.576V286.032H536.36ZM552.722 286.512L549.938 288.12H545.306L542.522 286.512V277.488L545.306 275.88H549.938L552.722 277.488V286.512ZM544.85 277.968V286.032H550.394V277.968H544.85ZM563.257 278.088H558.889V288H556.561V276H558.313L558.889 276.984L560.593 276H563.257V278.088ZM566.369 288V284.4H569.969V288H566.369ZM574.759 288V284.4H578.359V288H574.759ZM583.15 288V284.4H586.75V288H583.15Z" fill="white"/>
</g>
<defs>
<clipPath id="clip0">
<rect width="800" height="499.46" fill="white"/>
</clipPath>
</defs>
</svg>
