<svg width="375" height="289" viewBox="0 0 375 289" fill="none" xmlns="http://www.w3.org/2000/svg">
<g clip-path="url(#clip0)">
<path opacity="0.1" d="M353.262 164.004C340.738 181.958 345.604 208.187 353.562 229.193C356.227 236.226 359.241 243.667 358.116 251.209C356.742 260.432 349.441 267.176 341.776 270.75C327.804 277.266 311.084 275.713 298.245 266.707C287.15 258.925 279.204 246.269 267.92 238.841C249.035 226.41 224.998 231.104 204.492 239.667C189.985 245.725 174.124 253.604 159.708 247.273C149.565 242.818 142.553 231.975 138.733 220.481C136.888 214.932 135.55 208.925 132.027 204.527C129.933 201.912 127.201 200.056 124.401 198.491C98.8384 184.2 66.5525 191.853 41.7234 176.002C24.9547 165.297 14.2195 145.104 9.46624 124.048C4.713 102.992 5.26665 80.9129 6.47348 59.2281C7.3311 43.8176 8.86986 27.3654 17.6028 15.4717C26.841 2.88977 42.6957 -1.78872 57.0262 0.602711C71.3568 2.99414 84.3462 11.5176 95.7737 21.5567C110.056 34.1034 123.301 49.7271 140.836 54.8095C152.778 58.2707 165.339 56.3774 177.655 55.7218C198.245 54.6257 218.843 57.0632 239.319 59.7322C258.922 62.2873 278.666 65.0995 297.34 72.2895C310.555 77.3776 321.15 86.6138 333.629 93.0664C341.763 97.2724 350.632 98.4338 358.334 103.791C367.821 110.39 376.518 121.868 374.087 135.3C371.776 148.07 359.91 154.475 353.262 164.004Z" fill="white"/>
<path d="M244.932 55.0648C244.932 55.0648 224.8 48.3419 223.469 67.4644C222.139 86.5869 228.79 118.083 223.469 128.206C218.149 138.33 199.163 152.957 209.155 154.267C219.146 155.578 224.135 157.453 221.142 164.202C218.149 170.951 202.519 177.325 205.845 182.199C209.17 187.074 210.833 193.073 207.508 199.072C204.182 205.071 192.543 208.821 194.538 212.945C196.534 217.07 203.85 219.319 200.192 223.819C196.534 228.318 185.93 238.553 190.068 238.497" stroke="#535461" stroke-width="3" stroke-miterlimit="10"/>
<path d="M274.341 42.3247H231.885C229.503 42.3247 227.572 44.5019 227.572 47.1877V64.1733C227.572 66.8591 229.503 69.0363 231.885 69.0363H274.341C276.723 69.0363 278.654 66.8591 278.654 64.1733V47.1877C278.654 44.5019 276.723 42.3247 274.341 42.3247Z" fill="#6C63FF"/>
<path opacity="0.1" d="M274.583 64.9368H231.644V65.4376H274.583V64.9368Z" fill="#000D85"/>
<path opacity="0.3" d="M274.583 46.4985H231.644V64.8628H274.583V46.4985Z" fill="#000D85"/>
<path opacity="0.1" d="M241.638 62.7418C244.909 62.7418 247.561 59.752 247.561 56.0639C247.561 52.3758 244.909 49.386 241.638 49.386C238.367 49.386 235.716 52.3758 235.716 56.0639C235.716 59.752 238.367 62.7418 241.638 62.7418Z" fill="#000D85"/>
<path opacity="0.1" d="M264.588 62.7418C267.859 62.7418 270.511 59.752 270.511 56.0639C270.511 52.3758 267.859 49.386 264.588 49.386C261.317 49.386 258.666 52.3758 258.666 56.0639C258.666 59.752 261.317 62.7418 264.588 62.7418Z" fill="#000D85"/>
<path d="M257.555 69.0356H248.671V74.8803H257.555V69.0356Z" fill="#6C63FF"/>
<path d="M271.621 73.2102H234.605V106.6H271.621V73.2102Z" fill="#6C63FF"/>
<path d="M272.362 113.278H233.865V117.451H272.362V113.278Z" fill="#6C63FF"/>
<path d="M240.158 127.468V132.476V139.989V144.163V146.667H246.821V144.163V139.989V132.476V127.468V121.625H240.158V127.468Z" fill="#6C63FF"/>
<path d="M260.147 121.625V127.468V132.476V139.989V144.163V146.667H266.809V144.163V139.989V132.476V127.468V121.625H260.147Z" fill="#6C63FF"/>
<path d="M229.564 80.7231V88.4438C227.735 88.8039 226.031 89.7301 224.642 91.1189C223.354 92.4639 222.352 94.12 221.712 95.9632C220.895 98.3295 220.409 100.824 220.269 103.358C220.059 106.672 220.197 110.001 220.678 113.279H213.275C212.967 109.291 213.032 105.278 213.469 101.306C213.818 98.0225 214.62 94.8208 215.845 91.8164C217.99 86.744 221.04 83.9923 223.721 82.4976C225.536 81.4508 227.527 80.8462 229.564 80.7231Z" fill="#6C63FF"/>
<path opacity="0.3" d="M246.821 121.625H240.158V127.468H246.821V121.625Z" fill="#000D85"/>
<path opacity="0.3" d="M246.821 132.477H240.158V139.989H246.821V132.477Z" fill="#000D85"/>
<path opacity="0.3" d="M246.821 144.163H240.158V146.667H246.821V144.163Z" fill="#000D85"/>
<path opacity="0.3" d="M266.809 121.625H260.146V127.468H266.809V121.625Z" fill="#000D85"/>
<path opacity="0.3" d="M266.809 132.477H260.146V139.989H266.809V132.477Z" fill="#000D85"/>
<path opacity="0.3" d="M266.809 144.163H260.146V146.667H266.809V144.163Z" fill="#000D85"/>
<path opacity="0.3" d="M229.564 80.7231V88.4438C227.735 88.8039 226.031 89.7301 224.642 91.1189L223.721 82.4976C225.536 81.4508 227.527 80.8462 229.564 80.7231Z" fill="#000D85"/>
<path opacity="0.3" d="M221.712 95.963C220.895 98.3293 220.409 100.824 220.269 103.358L213.469 101.306C213.818 98.0223 214.62 94.8206 215.845 91.8162L221.712 95.963Z" fill="#000D85"/>
<path d="M276.663 80.7231V88.4438C278.492 88.8039 280.196 89.7301 281.585 91.1189C282.873 92.4639 283.875 94.12 284.515 95.9632C285.331 98.3295 285.818 100.824 285.958 103.358C286.168 106.672 286.03 110.001 285.548 113.279H292.951C293.26 109.291 293.195 105.278 292.758 101.306C292.409 98.0225 291.607 94.8208 290.382 91.8164C288.237 86.744 285.186 83.9923 282.506 82.4976C280.69 81.4508 278.7 80.8462 276.663 80.7231Z" fill="#6C63FF"/>
<path opacity="0.3" d="M276.663 80.7231V88.4438C278.492 88.8039 280.196 89.7301 281.585 91.1189L282.506 82.4976C280.69 81.4508 278.7 80.8462 276.663 80.7231Z" fill="#000D85"/>
<path opacity="0.3" d="M284.515 95.963C285.332 98.3293 285.818 100.824 285.958 103.358L292.758 101.306C292.409 98.0223 291.607 94.8206 290.382 91.8162L284.515 95.963Z" fill="#000D85"/>
<path opacity="0.1" d="M257.555 69.0356H248.671V69.7274H257.555V69.0356Z" fill="#000D85"/>
<path opacity="0.1" d="M272.279 79.1594V93.1386C271.836 92.5997 271.59 91.8919 271.591 91.1572V81.1389C271.59 80.4048 271.836 79.6976 272.279 79.1594Z" fill="#000D85"/>
<path opacity="0.1" d="M234.737 80.0809V90.5457C234.693 91.2074 234.449 91.8321 234.047 92.3163V78.3103C234.449 78.7945 234.693 79.4193 234.737 80.0809Z" fill="#000D85"/>
<path opacity="0.1" d="M269.771 106.6H236.457V107.095H269.771V106.6Z" fill="#000D85"/>
<path opacity="0.1" d="M252.002 117.452H235.716V117.835H252.002V117.452Z" fill="#000D85"/>
<path opacity="0.1" d="M269.771 117.452H253.484V117.835H269.771V117.452Z" fill="#000D85"/>
<path d="M240.082 17.605H237.533V42.3248H240.082V17.605Z" fill="#6C63FF"/>
<path d="M269.314 17.605H266.764V42.3248H269.314V17.605Z" fill="#6C63FF"/>
<path opacity="0.1" d="M238.722 21.0544C240.318 21.0544 241.611 19.5959 241.611 17.7967C241.611 15.9976 240.318 14.5391 238.722 14.5391C237.127 14.5391 235.833 15.9976 235.833 17.7967C235.833 19.5959 237.127 21.0544 238.722 21.0544Z" fill="#000D85"/>
<path d="M238.722 20.8627C240.318 20.8627 241.611 19.4042 241.611 17.6051C241.611 15.8059 240.318 14.3474 238.722 14.3474C237.127 14.3474 235.833 15.8059 235.833 17.6051C235.833 19.4042 237.127 20.8627 238.722 20.8627Z" fill="#6C63FF"/>
<path opacity="0.1" d="M268.124 21.0544C269.72 21.0544 271.013 19.5959 271.013 17.7967C271.013 15.9976 269.72 14.5391 268.124 14.5391C266.528 14.5391 265.235 15.9976 265.235 17.7967C265.235 19.5959 266.528 21.0544 268.124 21.0544Z" fill="#000D85"/>
<path d="M268.124 20.8627C269.72 20.8627 271.013 19.4042 271.013 17.6051C271.013 15.8059 269.72 14.3474 268.124 14.3474C266.528 14.3474 265.235 15.8059 265.235 17.6051C265.235 19.4042 266.528 20.8627 268.124 20.8627Z" fill="#6C63FF"/>
<path opacity="0.5" d="M208.007 160.825C206.87 162.109 206.611 163.871 206.207 165.505C205.054 170.171 202.339 174.475 198.556 177.636C195.785 179.951 192.069 182.515 192.726 185.97C192.883 186.795 193.298 187.566 193.407 188.398C193.879 192.001 188.994 193.9 187.102 197.053C185.694 199.402 186.07 202.312 186.489 204.987C187.001 208.262 187.621 211.756 190.004 214.167C190.647 214.817 191.413 215.382 191.862 216.166C192.867 217.924 191.993 220.228 192.907 222.031C194.125 224.434 197.963 224.538 200.189 222.918C202.416 221.297 203.445 218.633 204.432 216.134C207.099 209.383 210.378 202.609 215.921 197.692C221.236 192.978 228.967 189.321 229.879 182.459C230.27 179.517 229.279 176.292 230.792 173.7C231.507 172.475 232.703 171.568 233.512 170.397C235.923 166.91 234.128 161.866 230.597 159.39C225.266 155.651 212.643 155.591 208.007 160.825Z" fill="#DEE3F3"/>
<path d="M301.441 35.47L277.953 43.7449L278.846 46.9659L302.334 38.691L301.441 35.47Z" fill="#6C63FF"/>
<path d="M311.899 160.833C311.899 160.833 299.022 157.929 295.588 154.057C292.154 150.185 276.701 143.41 274.984 148.249C273.267 153.089 251.805 169.545 266.399 172.449C280.993 175.353 300.739 176.321 305.031 174.385C309.323 172.449 311.899 160.833 311.899 160.833Z" fill="#A8A8A8"/>
<path opacity="0.2" d="M266.399 170.651C280.993 173.555 300.738 174.523 305.031 172.587C308.3 171.112 310.571 164.029 311.469 160.732C311.741 160.797 311.899 160.833 311.899 160.833C311.899 160.833 309.323 172.449 305.031 174.385C300.738 176.321 280.993 175.353 266.399 172.449C262.187 171.61 260.982 169.642 261.436 167.151C261.796 168.776 263.264 170.027 266.399 170.651Z" fill="#000D85"/>
<path d="M340.496 34.2469C340.266 33.6022 339.9 33.0306 339.43 32.5816C335.975 29.0306 330.386 30.107 326.096 27.9379C325.107 27.4382 324.094 26.745 323.02 26.935C321.522 27.2002 320.129 29.1238 318.822 28.2703L318.916 28.5917C318.884 28.5744 318.853 28.5571 318.822 28.5368C319.142 29.6369 319.463 30.7369 319.783 31.837C320.152 33.104 320.541 34.4079 321.258 35.4629C320.197 36.5062 319.385 37.8328 318.897 39.3213C318.408 40.8098 318.258 42.4127 318.46 43.9835C318.663 45.5542 319.212 47.0426 320.056 48.3126C320.901 49.5825 322.014 50.5934 323.294 51.2528C323.34 51.3633 323.385 51.4742 323.428 51.5862C323.469 51.6069 323.511 51.6248 323.552 51.6448C323.837 52.3828 324.049 53.1536 324.186 53.9436C323.074 54.117 321.136 55.5034 319.229 57.5509L315.416 57.4038C312.952 57.3112 310.568 56.3973 308.565 54.7776L297.162 45.5346C296.35 45.6245 295.584 46.0062 294.978 46.6234C293.562 44.9599 292.36 43.2221 292.462 42.2041C292.462 42.2041 287.16 31.0139 285.232 36.609C283.303 42.2041 288.847 48.0657 288.847 48.0657L292.364 53.2026C292.225 54.103 292.137 55.0125 292.101 55.9255C296.439 61.5206 311.624 66.5828 311.624 66.5828L313.992 66.712C313.997 66.7611 314.001 66.8025 314.005 66.8432C313.86 67.5438 313.789 68.2613 313.793 68.9807C313.795 69.084 313.796 69.1923 313.798 69.3005C313.797 69.3715 313.792 69.4428 313.793 69.5136C313.914 78.4391 314.998 105.749 314.998 105.749C315.21 105.642 315.427 105.545 315.649 105.454L315.48 107.88C315.48 107.88 305.357 109.479 297.885 112.676C290.414 115.873 290.173 119.603 290.173 119.603V152.516C288.038 153.751 284.671 155.374 282.942 154.506C281.065 153.563 280.035 154.355 279.849 155.182V155.182C279.811 155.345 279.808 155.515 279.841 155.679L279.843 155.689C279.859 155.763 279.883 155.834 279.915 155.9L279.922 155.916C279.957 155.985 279.999 156.049 280.049 156.104C280.773 156.904 296.439 163.831 300.055 162.765C300.166 162.732 300.276 162.691 300.382 162.641C300.417 162.625 300.448 162.603 300.482 162.585C300.549 162.55 300.616 162.515 300.679 162.473C300.716 162.449 300.749 162.419 300.785 162.392C300.839 162.351 300.894 162.311 300.945 162.266C300.98 162.234 301.011 162.198 301.045 162.164C301.091 162.118 301.139 162.072 301.182 162.021C301.214 161.984 301.242 161.944 301.272 161.905C301.313 161.851 301.355 161.799 301.393 161.743C301.42 161.702 301.444 161.658 301.47 161.615C301.507 161.555 301.544 161.496 301.577 161.433C301.6 161.389 301.621 161.343 301.643 161.298C301.675 161.231 301.708 161.165 301.737 161.095C301.756 161.05 301.773 161.003 301.791 160.956C301.82 160.882 301.849 160.808 301.874 160.731C301.89 160.686 301.903 160.639 301.917 160.593C301.942 160.511 301.967 160.43 301.99 160.345C302.001 160.302 302.011 160.257 302.022 160.212C302.044 160.122 302.065 160.032 302.084 159.94C302.093 159.899 302.1 159.857 302.108 159.816C302.127 159.717 302.144 159.618 302.16 159.518C302.166 159.481 302.171 159.443 302.176 159.406C302.191 159.299 302.206 159.191 302.218 159.082C302.221 159.05 302.224 159.019 302.227 158.988C302.239 158.871 302.25 158.753 302.259 158.635C302.261 158.611 302.262 158.586 302.264 158.561C302.272 158.435 302.279 158.308 302.285 158.181C302.285 158.164 302.286 158.147 302.286 158.13C302.291 157.995 302.295 157.859 302.296 157.724L302.297 157.698C302.291 156.108 302.135 154.524 301.831 152.972L302.706 124.932C307.44 125.015 312.174 124.818 316.89 124.343L317.409 137.721C317.409 137.721 317.409 146.513 320.06 150.509C322.329 153.93 324.951 169.056 325.66 173.348C324.685 175.442 322.822 178.032 319.578 177.952C319.578 177.952 313.473 177.357 313.818 179.25L313.818 179.254C313.828 179.303 313.841 179.351 313.857 179.399L313.861 179.411C313.88 179.465 313.902 179.518 313.927 179.57L313.932 179.58C313.957 179.629 313.985 179.679 314.017 179.731C314.023 179.742 314.029 179.752 314.036 179.763C314.072 179.819 314.111 179.876 314.155 179.935L314.166 179.949C314.207 180.002 314.252 180.057 314.3 180.113C314.313 180.129 314.327 180.144 314.341 180.16C314.395 180.222 314.453 180.285 314.516 180.35C317.65 183.547 335.968 184.08 335.968 184.08L335.968 184.068L335.968 184.059L335.967 184.02L335.967 184.008C335.967 183.988 335.967 183.962 335.967 183.934L335.967 183.923C335.956 182.998 335.847 178.143 334.75 174.488H335.004C335.004 174.488 332.352 147.579 330.183 144.381C330.183 144.381 329.607 130.192 330.908 121.3C330.988 121.267 331.068 121.235 331.147 121.202C337.224 118.643 337.655 112.341 337.029 107.711C338.178 108.128 338.86 108.413 338.86 108.413C338.86 108.413 338.839 108.212 338.8 107.855C338.838 107.871 338.86 107.88 338.86 107.88C338.86 107.88 338.744 107.034 338.553 105.713C338.119 102.083 337.277 95.738 336.38 92.7426C336.235 92.0841 336.096 91.5213 335.968 91.0947C335.45 89.2948 335.095 87.4406 334.907 85.5602C334.661 83.1236 334.537 80.6734 334.534 78.2212C334.554 74.9441 334.777 71.6726 335.2 68.4306C335.568 65.5989 335.9 62.3783 335.872 60.1295C335.897 59.3463 335.848 58.5622 335.727 57.7905C335.405 56.1301 333.984 55.0504 332.507 54.3635C332.412 54.3192 332.315 54.2829 332.219 54.2418C332.255 53.6124 332.302 52.8993 332.363 52.1474C332.54 52.2857 332.74 52.3819 332.951 52.4301C333.163 52.4783 333.38 52.4775 333.591 52.4279C334.226 52.2711 334.682 51.6736 335.087 51.1116C337.224 48.1533 339.417 45.0697 340.238 41.3948C340.565 39.7535 340.717 38.0736 340.689 36.3915C340.69 36.2995 340.69 36.2074 340.689 36.115C340.721 35.4843 340.656 34.8522 340.496 34.2469Z" fill="url(#paint0_linear)"/>
<path d="M321.046 48.6679C321.046 48.6679 324.283 54.1417 323.589 56.7483C322.896 59.3549 331.218 57.7909 331.218 57.7909C331.218 57.7909 331.449 47.6252 333.067 45.2793C334.686 42.9334 321.046 48.6679 321.046 48.6679Z" fill="#F7C4A7"/>
<path d="M299.663 52.1869C299.663 52.1869 292.958 45.9311 293.19 43.5851C293.19 43.5851 288.104 32.6375 286.254 38.1113C284.405 43.5851 289.722 49.3196 289.722 49.3196L296.195 58.964L299.663 52.1869Z" fill="#F7C4A7"/>
<path d="M292.843 150.325C292.843 150.325 286.601 154.756 284.058 153.453C281.515 152.149 280.59 154.235 281.284 155.017C281.978 155.799 297.004 162.576 300.472 161.533C303.939 160.49 302.176 151.952 302.176 151.952L292.843 150.325Z" fill="#535461"/>
<path d="M325.901 169.353C325.901 169.353 324.398 176.521 319.197 176.39C319.197 176.39 311.337 175.609 314.342 178.736C317.347 181.864 334.917 182.386 334.917 182.386C334.917 182.386 334.917 171.699 331.68 169.353C328.444 167.007 325.901 169.353 325.901 169.353Z" fill="#535461"/>
<path d="M316.423 118.785L317.116 137.031C317.116 137.031 317.116 145.633 319.659 149.543C322.202 153.453 325.207 173.002 325.207 173.002H333.992C333.992 173.002 331.449 146.675 329.369 143.548C329.369 143.548 328.444 120.349 331.68 115.136L316.423 118.785Z" fill="#575988"/>
<path opacity="0.1" d="M316.423 118.785L317.116 137.031C317.116 137.031 317.116 145.633 319.659 149.543C322.202 153.453 325.207 173.002 325.207 173.002H333.992C333.992 173.002 331.449 146.675 329.369 143.548C329.369 143.548 328.444 120.349 331.68 115.136L316.423 118.785Z" fill="#000D85"/>
<path d="M334.686 102.364C334.686 102.364 340.003 116.7 330.293 120.87C320.584 125.041 303.015 124.52 303.015 124.52L302.09 154.756C302.09 154.756 291.225 156.32 290.993 152.41V119.306C290.993 119.306 291.225 115.657 298.391 112.529C305.557 109.401 315.267 107.837 315.267 107.837L315.729 101.06L334.686 102.364Z" fill="#575988"/>
<path opacity="0.1" d="M326.166 55.1363C328.013 54.9062 329.881 55.204 331.598 56.0022C333.015 56.6743 334.377 57.7305 334.686 59.355C335.051 61.2788 334.646 65.5933 334.181 69.2431C333.436 74.9661 333.342 80.7727 333.899 86.5228C334.137 88.9173 334.466 91.0055 334.917 91.9373C336.304 94.8046 337.691 108.359 337.691 108.359C337.691 108.359 322.433 101.842 314.804 105.752C314.804 105.752 313.764 79.0347 313.649 70.3026C313.559 63.5413 321.162 55.8361 323.705 55.5754C325.195 55.4227 324.685 55.3096 326.166 55.1363Z" fill="#000D85"/>
<path d="M326.166 54.6148C328.013 54.3847 329.881 54.6825 331.598 55.4807C333.015 56.1528 334.377 57.2091 334.686 58.8335C335.051 60.7573 334.646 65.0718 334.181 68.7216C333.436 74.4446 333.342 80.2513 333.899 86.0013C334.079 87.8396 334.42 89.6533 334.917 91.4158C335.957 94.9347 337.691 107.837 337.691 107.837C337.691 107.837 322.433 101.321 314.804 105.231C314.804 105.231 313.764 78.5132 313.649 69.7812C313.559 63.0198 321.162 55.3146 323.705 55.0539C325.195 54.9012 324.685 54.7881 326.166 54.6148Z" fill="#F5F95A"/>
<path opacity="0.1" d="M330.293 68.9992L313.88 67.9565C313.88 67.9565 312.835 58.8833 315.205 58.9765L331.449 59.6155C331.449 59.6155 334.917 64.3073 330.293 68.9992Z" fill="#000D85"/>
<path d="M330.293 68.4779L311.568 67.4353C311.568 67.4353 297.004 62.4828 292.843 57.0089C292.843 57.0089 293.074 47.3646 297.698 46.8433L308.634 55.886C310.546 57.4668 312.835 58.3621 315.205 58.4553L331.449 59.0942C331.449 59.0942 334.917 63.7861 330.293 68.4779Z" fill="#F5F95A"/>
<path opacity="0.1" d="M331.102 49.8409C331.377 47.3691 332.371 46.5493 333.067 45.54C334.686 43.1941 321.046 48.9286 321.046 48.9286C321.749 50.1503 322.366 51.4326 322.89 52.7638C323.979 53.3293 325.164 53.6216 326.363 53.6205C328.374 53.6205 329.664 51.1796 331.102 49.8409Z" fill="#000D85"/>
<path d="M326.363 53.3597C330.96 53.3597 334.686 49.1585 334.686 43.976C334.686 38.7935 330.96 34.5923 326.363 34.5923C321.767 34.5923 318.041 38.7935 318.041 43.976C318.041 49.1585 321.767 53.3597 326.363 53.3597Z" fill="#F7C4A7"/>
<path opacity="0.1" d="M321.108 37.3986C320.222 36.3072 319.796 34.8512 319.393 33.4425L318.472 30.2138C319.725 31.0488 321.061 29.1669 322.499 28.9074C323.528 28.7216 324.5 29.3998 325.448 29.8886C329.563 32.0107 334.924 30.9576 338.238 34.4317C338.69 34.8735 339.041 35.4325 339.26 36.0608C339.414 36.6569 339.477 37.2783 339.445 37.8982C339.472 39.5434 339.327 41.1864 339.012 42.7931C338.225 46.3884 336.121 49.4051 334.072 52.2993C333.683 52.8492 333.246 53.4337 332.637 53.5871C331.448 53.8866 330.527 52.4368 330.067 51.1643C329.457 49.4788 329.008 47.7253 328.726 45.933C328.654 45.1665 328.468 44.419 328.176 43.7221C327.46 42.2902 325.694 40.9353 324.621 39.8262C323.565 38.736 322.094 38.6127 321.108 37.3986Z" fill="#000D85"/>
<path d="M321.108 37.1381C320.222 36.0467 319.796 34.5907 319.393 33.182L318.472 29.9533C319.725 30.7883 321.061 28.9064 322.499 28.6469C323.528 28.4611 324.5 29.1393 325.448 29.6281C329.563 31.7502 334.924 30.6971 338.238 34.1712C338.69 34.613 339.041 35.172 339.26 35.8003C339.414 36.3964 339.477 37.0178 339.445 37.6377C339.472 39.2829 339.327 40.9259 339.012 42.5326C338.225 46.1279 336.121 49.1446 334.072 52.0388C333.683 52.5886 333.246 53.1732 332.637 53.3266C331.448 53.6261 330.527 52.1763 330.067 50.9038C329.457 49.2183 329.008 47.4648 328.726 45.6725C328.654 44.906 328.468 44.1585 328.176 43.4616C327.46 42.0297 325.694 40.6748 324.621 39.5657C323.565 38.4755 322.094 38.3522 321.108 37.1381Z" fill="#632652"/>
<path d="M328.559 46.7128C328.942 46.7128 329.253 45.9542 329.253 45.0185C329.253 44.0828 328.942 43.3242 328.559 43.3242C328.176 43.3242 327.866 44.0828 327.866 45.0185C327.866 45.9542 328.176 46.7128 328.559 46.7128Z" fill="#F7C4A7"/>
<path opacity="0.1" d="M332.721 90.2429C332.721 90.2429 332.258 91.8069 329.946 91.5462C327.635 91.2856 320.931 90.7642 320.931 91.5462" fill="#000D85"/>
<path opacity="0.5" d="M314.342 178.476C314.024 178.2 313.79 177.82 313.669 177.388C313.609 177.727 313.795 178.167 314.342 178.736C317.347 181.864 334.917 182.386 334.917 182.386C334.917 182.386 334.917 182.293 334.914 182.125C334.803 182.122 317.338 181.594 314.342 178.476Z" fill="white"/>
<path opacity="0.5" d="M300.472 161.012C297.004 162.055 281.978 155.277 281.284 154.495C281.191 154.39 281.125 154.258 281.092 154.114C281.052 154.271 281.048 154.436 281.082 154.594C281.116 154.752 281.185 154.898 281.284 155.017C281.978 155.799 297.004 162.576 300.472 161.533C302.256 160.997 302.654 158.475 302.621 156.153C302.587 158.318 302.123 160.515 300.472 161.012Z" fill="white"/>
<path d="M168.598 180.989C167.787 175.903 167.29 170.76 167.11 165.597V165.597C166.951 161.345 165.628 157.252 163.324 153.881C161.02 150.51 157.847 148.025 154.241 146.768C152.928 146.312 151.48 145.886 149.883 145.504C135.873 142.149 131.618 145.078 131.134 145.463C130.726 144.622 130.372 143.749 130.074 142.852C130.05 142.76 130.028 142.668 130.005 142.575C132.777 139.241 134.466 134.947 134.797 130.392C137.133 127.72 138.499 124.497 138.499 121.026C138.499 118.042 137.488 115.24 135.719 112.815V108.105C135.719 105.411 135.248 102.744 134.334 100.255C133.42 97.7667 132.08 95.5055 130.391 93.6008C128.701 91.6961 126.696 90.1852 124.489 89.1544C122.282 88.1236 119.916 87.593 117.527 87.593H116.052C113.663 87.593 111.297 88.1236 109.09 89.1544C106.883 90.1852 104.878 91.6961 103.188 93.6008C101.499 95.5055 100.159 97.7667 99.245 100.255C98.3308 102.744 97.8602 105.411 97.8602 108.105V113.189C96.2658 115.409 95.38 118.17 95.3451 121.026C95.3451 124.424 96.6546 127.584 98.9022 130.222C99.2093 134.944 100.976 139.395 103.895 142.8C103.993 143.57 104.094 144.399 104.194 145.274L79.1294 151.25C79.1294 151.25 69.4662 151.698 63.2447 166.176C57.9777 178.432 47.4933 209.942 44.3999 219.323H44.3999L44.3999 219.323C43.8393 221.023 43.5211 221.997 43.5211 221.997C43.5211 221.997 43.6236 221.88 43.8205 221.681C43.6259 222.274 43.5211 222.594 43.5211 222.594C43.5211 222.594 43.6732 222.421 43.9623 222.136C43.5233 226.062 43.4606 232.8 48.0217 233.639C51.8451 234.343 61.6931 234.632 69.1352 234.751V234.759H69.6514C74.583 234.833 78.3352 234.833 78.3352 234.833V234.759H158.355V233.834C158.356 232.994 158.206 232.163 157.914 231.39C157.952 231.34 157.989 231.29 158.025 231.239C158.453 231.877 158.738 232.622 158.856 233.41C158.847 233.487 158.834 233.564 158.818 233.639C158.818 233.639 158.834 233.591 158.865 233.501C158.884 233.747 158.868 233.996 158.818 234.236C158.818 234.236 169.084 204.41 168.975 186.601C169.005 184.721 168.879 182.842 168.598 180.989ZM104.604 149.301C104.472 148.45 104.387 147.591 104.35 146.729L104.351 146.705C104.439 147.542 104.525 148.411 104.604 149.301ZM73.5036 213.366V220.474L69.5515 221.426L73.5036 213.366Z" fill="url(#paint1_linear)"/>
<path d="M116.379 90.4619H116.379C121.204 90.4619 125.831 92.623 129.242 96.4697C132.654 100.316 134.57 105.534 134.57 110.974V119.723H98.1871V110.974C98.1871 105.534 100.104 100.316 103.515 96.4697C106.927 92.623 111.554 90.4619 116.379 90.4619Z" fill="#FF5D53"/>
<path d="M116.506 138.658C127.958 138.658 137.242 131.465 137.242 122.592C137.242 113.72 127.958 106.527 116.506 106.527C105.054 106.527 95.77 113.72 95.77 122.592C95.77 131.465 105.054 138.658 116.506 138.658Z" fill="#FF5D53"/>
<path d="M103.212 138.155C103.212 138.155 107.537 163.688 103.212 170.573C98.8868 177.458 116.442 180.183 116.442 180.183L134.634 172.724L137.178 154.364C137.178 154.364 126.111 147.335 128.401 133.135L103.212 138.155Z" fill="#F7C4A7"/>
<path d="M156.897 224.219C156.897 224.219 158.042 229.813 151.808 230.817C148.127 231.428 144.383 231.378 140.716 230.668L139.341 216.617H153.844L156.897 224.219Z" fill="#F7C4A7"/>
<path d="M46.81 217.059C46.81 217.059 44.0572 229.67 50.2907 230.817C56.5243 231.965 79.4229 231.965 79.4229 231.965V217.047L69.0569 219.543L59.323 209.014L46.81 217.059Z" fill="#F7C4A7"/>
<path opacity="0.1" d="M104.548 146.403L80.1862 152.212C80.1862 152.212 70.8995 152.643 64.9204 166.556C58.9413 180.47 45.9654 220.203 45.9654 220.203C45.9654 220.203 57.0331 207.58 70.009 221.063L78.6596 203.42L76.7514 231.391H143.794V218.194C143.794 218.194 157.787 226.657 156.769 231.391C156.769 231.391 168.744 196.602 166.169 180.792C165.389 175.904 164.911 170.962 164.738 166V166C164.585 161.914 163.314 157.98 161.1 154.74C158.886 151.501 155.837 149.113 152.371 147.904C151.109 147.467 149.717 147.057 148.182 146.69C133.807 143.247 130.118 146.69 130.118 146.69C130.118 146.69 127.333 156.906 127.383 161.536C127.446 167.489 119.877 171.433 119.877 171.433C119.877 171.433 108.682 168.421 108.173 165.983C107.665 163.544 103.657 149.272 104.548 146.403Z" fill="#000D85"/>
<path d="M104.548 145.829L80.1862 151.639C80.1862 151.639 70.8995 152.069 64.9204 165.982C58.9414 179.896 45.9654 219.629 45.9654 219.629C45.9654 219.629 57.0331 207.006 70.009 220.489L78.6596 202.846L76.7514 230.817H143.794V217.621C143.794 217.621 157.787 226.084 156.769 230.817C156.769 230.817 168.744 196.029 166.169 180.218C165.389 175.331 164.911 170.388 164.738 165.426V165.426C164.585 161.34 163.314 157.407 161.1 154.167C158.886 150.927 155.837 148.539 152.371 147.331C151.109 146.893 149.717 146.484 148.182 146.116C133.807 142.674 130.118 146.116 130.118 146.116C130.118 146.116 127.333 156.332 127.383 160.962C127.446 166.915 119.877 170.859 119.877 170.859C119.877 170.859 108.682 167.847 108.173 165.409C107.665 162.97 103.657 148.698 104.548 145.829Z" fill="#575988"/>
<path opacity="0.1" d="M129.446 144.611C128.423 141.343 128.194 137.827 128.782 134.426L103.594 139.446C103.594 139.446 103.957 141.593 104.368 144.808C105.996 146.713 107.95 148.224 110.112 149.25C112.274 150.277 114.599 150.796 116.945 150.778C119.291 150.759 121.608 150.203 123.758 149.143C125.907 148.082 127.842 146.54 129.446 144.611Z" fill="#000D85"/>
<path d="M133.744 129.979C133.744 135.112 131.95 140.038 128.75 143.69C125.551 147.341 121.204 149.424 116.652 149.486C112.1 149.548 107.71 147.585 104.433 144.022C101.156 140.459 99.2567 135.584 99.1463 130.453C99.1425 130.295 99.1412 130.137 99.1412 129.979C99.1406 126.327 100.049 122.747 101.764 119.648C103.479 116.549 105.93 114.055 108.84 112.45C109.359 112.164 109.892 111.907 110.439 111.678C113.287 110.498 116.359 110.176 119.351 110.746C119.352 110.747 119.355 110.747 119.357 110.747C123.189 111.483 126.69 113.654 129.293 116.909C131.897 120.164 133.451 124.313 133.705 128.687C133.731 129.114 133.744 129.545 133.744 129.979Z" fill="#F7C4A7"/>
<g opacity="0.1">
<path opacity="0.1" d="M110.415 112.136C110.423 112.129 110.431 112.124 110.439 112.118C109.892 112.346 109.359 112.604 108.84 112.89C105.93 114.496 103.479 116.99 101.764 120.089C100.049 123.188 99.1406 126.767 99.1412 130.42C99.1412 130.578 99.1425 130.735 99.1463 130.893C99.684 130.877 100.213 130.734 100.698 130.473C104.917 128.254 107.447 121.462 108.441 116.726C108.797 115.03 109.138 113.12 110.415 112.136Z" fill="#000D85"/>
<path opacity="0.1" d="M123.658 112.684C122.289 111.974 120.843 111.471 119.357 111.188C120.576 111.503 121.664 112.274 122.446 113.375C122.829 113.963 123.146 114.601 123.391 115.275C121.089 114.14 118.595 113.583 116.082 113.642C113.57 113.7 111.099 114.374 108.84 115.615C109.926 118.299 113.294 119.764 115.542 120.743C118.003 121.815 120.494 122.795 123.013 123.682C122.271 123.003 121.53 122.324 120.788 121.646C122.462 121.945 124.137 122.246 125.812 122.546C125.866 121.419 125.748 120.289 125.461 119.207C126.417 120.082 127.7 120.375 128.744 121.118C130.702 122.509 131.516 125.194 132.583 127.509C132.831 128.147 133.217 128.703 133.705 129.127C133.499 125.62 132.457 122.241 130.688 119.347C128.92 116.452 126.491 114.15 123.658 112.684Z" fill="#000D85"/>
</g>
<path d="M110.415 111.695C110.423 111.689 110.431 111.683 110.439 111.678C109.892 111.906 109.359 112.163 108.84 112.45C105.93 114.055 103.479 116.549 101.764 119.648C100.049 122.747 99.1406 126.327 99.1412 129.979C99.1412 130.137 99.1425 130.295 99.1463 130.453C99.684 130.437 100.213 130.293 100.698 130.032C104.917 127.813 107.447 121.022 108.441 116.285C108.797 114.59 109.138 112.679 110.415 111.695Z" fill="#632652"/>
<path d="M123.658 112.243C122.289 111.534 120.843 111.031 119.357 110.747C120.576 111.063 121.664 111.834 122.446 112.935C122.829 113.522 123.146 114.16 123.391 114.835C121.089 113.7 118.595 113.143 116.082 113.201C113.57 113.26 111.099 113.933 108.84 115.175C109.926 117.859 113.294 119.323 115.542 120.303C118.003 121.374 120.494 122.354 123.013 123.242C122.271 122.562 121.53 121.883 120.788 121.205C122.462 121.505 124.137 121.805 125.812 122.106C125.866 120.979 125.748 119.849 125.461 118.767C126.417 119.641 127.7 119.934 128.744 120.677C130.702 122.069 131.516 124.754 132.583 127.069C132.831 127.706 133.217 128.263 133.705 128.687C133.499 125.18 132.457 121.801 130.688 118.906C128.92 116.012 126.491 113.71 123.658 112.243Z" fill="#632652"/>
<path opacity="0.1" d="M97.1694 126.762C97.1694 126.762 114.979 101.804 135.588 126.762L133.807 121.168C133.807 121.168 124.139 105.246 117.269 108.689C110.4 112.131 103.657 114.57 103.657 114.57L97.1694 126.762Z" fill="#000D85"/>
<path d="M97.1694 126.322C97.1694 126.322 114.979 101.363 135.588 126.322L133.807 120.728C133.807 120.728 124.139 104.806 117.269 108.248C110.4 111.691 103.657 114.129 103.657 114.129L97.1694 126.322Z" fill="#FF5D53"/>
<path opacity="0.1" d="M82.5397 180.111C82.5397 180.111 78.7232 191.586 84.0662 201.914C89.4093 212.242 79.3593 216.545 79.3593 216.545" fill="#000D85"/>
<path opacity="0.1" d="M144.366 169.784C144.366 169.784 150.981 179.251 146.656 187.714C142.331 196.177 142.585 216.545 142.585 216.545" fill="#000D85"/>
<path d="M76.6878 225.008H150.218C151.837 225.008 153.391 225.733 154.536 227.024C155.681 228.316 156.324 230.067 156.324 231.893H70.5815C70.5815 230.067 71.2248 228.316 72.37 227.024C73.5151 225.733 75.0683 225.008 76.6878 225.008H76.6878Z" fill="#535461"/>
<path d="M87.7486 177.673H139.157C142.597 177.673 145.895 179.213 148.328 181.956C150.76 184.698 152.126 188.418 152.126 192.296V226.586H74.7796V192.296C74.7796 188.418 76.1459 184.698 78.5781 181.956C81.0103 179.213 84.309 177.673 87.7486 177.673Z" fill="#535461"/>
<path d="M113.389 209.445C115.919 209.445 117.969 207.133 117.969 204.281C117.969 201.429 115.919 199.117 113.389 199.117C110.86 199.117 108.81 201.429 108.81 204.281C108.81 207.133 110.86 209.445 113.389 209.445Z" fill="white"/>
<path opacity="0.1" d="M98.1871 115.06C98.1871 115.06 115.692 95.3335 134.57 114.7" stroke="#7011CE" stroke-miterlimit="10"/>
<path d="M138.994 113.803H137.236V125.036H138.994V113.803Z" fill="#7011CE"/>
<path d="M134.892 121.072C136.498 121.072 138.038 121.791 139.174 123.072C140.309 124.352 140.947 126.089 140.947 127.9V128.34C140.947 130.151 140.309 131.888 139.174 133.168C138.038 134.449 136.498 135.168 134.892 135.168V121.072Z" fill="#F5F95A"/>
<path d="M135.087 120.411H135.087C134.332 120.411 133.72 121.101 133.72 121.953V134.287C133.72 135.139 134.332 135.829 135.087 135.829H135.087C135.842 135.829 136.455 135.139 136.455 134.287V121.953C136.455 121.101 135.842 120.411 135.087 120.411Z" fill="#7011CE"/>
<path d="M93.5843 125.257H95.3423V114.024H93.5843V125.257Z" fill="#7011CE"/>
<path d="M97.6864 135.388C96.0804 135.388 94.5401 134.669 93.4045 133.389C92.2688 132.108 91.6308 130.371 91.6308 128.561V128.12C91.6308 126.309 92.2688 124.572 93.4045 123.292C94.5401 122.011 96.0804 121.292 97.6864 121.292V135.388Z" fill="#F5F95A"/>
<path d="M97.4911 136.049H97.4911C98.2463 136.049 98.8585 135.359 98.8585 134.507V122.173C98.8585 121.322 98.2463 120.631 97.4911 120.631H97.4911C96.7359 120.631 96.1237 121.322 96.1237 122.173V134.507C96.1237 135.359 96.7359 136.049 97.4911 136.049Z" fill="#7011CE"/>
<path d="M137.028 101.797C134.647 96.2161 129.463 89.4687 118.287 88.9302L118.288 88.9148L118.154 88.922L118.145 88.9215L118.145 88.9225L114.186 89.1351L114.186 89.1569C103.084 89.7332 97.9235 96.4542 95.5506 102.017C93.9727 105.786 93.1355 109.894 93.0963 114.062L94.4633 114.024L95.8303 113.988C95.8901 110.274 96.6489 106.616 98.0565 103.258C101.071 96.278 106.616 92.5654 114.538 92.2229L114.538 92.2202L118.04 92.0016L118.04 92.0027C125.962 92.3451 131.507 96.0577 134.522 103.037C135.929 106.396 136.688 110.054 136.748 113.768L138.115 113.804L139.482 113.841C139.443 109.674 138.606 105.566 137.028 101.797Z" fill="#F5F95A"/>
<path d="M199.49 231.984H13.0085V288.437H199.49V231.984Z" fill="#F5F95A"/>
<path opacity="0.1" d="M199.49 235.783H13.0085V243.112H199.49V235.783Z" fill="#000D85"/>
<path d="M211.997 231.169H0.5V238.498H211.997V231.169Z" fill="#D6D6E3"/>
<path d="M145.323 212.945C145.323 212.945 153.303 229.443 173.256 224.944C193.208 220.444 183.565 266.563 183.565 266.563C183.565 266.563 180.3 288.564 182.597 288.437" stroke="#535461" stroke-width="3" stroke-miterlimit="10"/>
</g>
<defs>
<linearGradient id="paint0_linear" x1="310.254" y1="184.08" x2="310.254" y2="26.9029" gradientUnits="userSpaceOnUse">
<stop stop-color="#808080" stop-opacity="0.25"/>
<stop offset="0.53514" stop-color="#808080" stop-opacity="0.12"/>
<stop offset="1" stop-color="#808080" stop-opacity="0.1"/>
</linearGradient>
<linearGradient id="paint1_linear" x1="44664.4" y1="101929" x2="44664.4" y2="44109.3" gradientUnits="userSpaceOnUse">
<stop stop-color="#808080" stop-opacity="0.25"/>
<stop offset="0.53514" stop-color="#808080" stop-opacity="0.12"/>
<stop offset="1" stop-color="#808080" stop-opacity="0.1"/>
</linearGradient>
<clipPath id="clip0">
<rect width="374" height="289" fill="white" transform="translate(0.5)"/>
</clipPath>
</defs>
</svg>
